<?xml version="1.0" encoding="UTF-8" standalone="no"?>
<!DOCTYPE svg PUBLIC "-//W3C//DTD SVG 1.1//EN"
 "http://www.w3.org/Graphics/SVG/1.1/DTD/svg11.dtd">
<!-- Generated by graphviz version 2.38.0 (20140413.2041)
 -->
<!-- Title: packages_bitween_small Pages: 1 -->
<svg width="1029pt" height="404pt"
 viewBox="0.00 0.00 1029.00 404.00" xmlns="http://www.w3.org/2000/svg" xmlns:xlink="http://www.w3.org/1999/xlink">
<g id="graph0" class="graph" transform="scale(1 1) rotate(0) translate(4 400)">
<title>packages_bitween_small</title>
<polygon fill="white" stroke="none" points="-4,4 -4,-400 1025,-400 1025,4 -4,4"/>
<!-- 0 -->
<g id="node1" class="node"><title>0</title>
<polygon fill="none" stroke="black" points="318,-36 257,-36 257,-0 318,-0 318,-36"/>
<text text-anchor="middle" x="287.5" y="-14.3" font-family="Times,serif" font-size="14.00">bitween</text>
</g>
<!-- 1 -->
<g id="node2" class="node"><title>1</title>
<polygon fill="none" stroke="black" points="425,-36 336,-36 336,-0 425,-0 425,-36"/>
<text text-anchor="middle" x="380.5" y="-14.3" font-family="Times,serif" font-size="14.00">bitween.core</text>
</g>
<!-- 2 -->
<g id="node3" class="node"><title>2</title>
<polygon fill="none" stroke="black" points="331,-108 222,-108 222,-72 331,-72 331,-108"/>
<text text-anchor="middle" x="276.5" y="-86.3" font-family="Times,serif" font-size="14.00">bitween.core.api</text>
</g>
<!-- 3 -->
<g id="node4" class="node"><title>3</title>
<polygon fill="none" stroke="black" points="267.5,-180 145.5,-180 145.5,-144 267.5,-144 267.5,-180"/>
<text text-anchor="middle" x="206.5" y="-158.3" font-family="Times,serif" font-size="14.00">bitween.core.api.bt</text>
</g>
<!-- 2&#45;&gt;3 -->
<g id="edge1" class="edge"><title>2&#45;&gt;3</title>
<path fill="none" stroke="black" d="M259.197,-108.303C250.635,-116.865 240.156,-127.344 230.804,-136.696"/>
<polygon fill="black" stroke="black" points="223.604,-143.896 227.493,-133.643 227.14,-140.36 230.675,-136.825 230.675,-136.825 230.675,-136.825 227.14,-140.36 233.857,-140.007 223.604,-143.896 223.604,-143.896"/>
</g>
<!-- 7 -->
<g id="node8" class="node"><title>7</title>
<polygon fill="none" stroke="black" points="273.5,-252 139.5,-252 139.5,-216 273.5,-216 273.5,-252"/>
<text text-anchor="middle" x="206.5" y="-230.3" font-family="Times,serif" font-size="14.00">bitween.core.models</text>
</g>
<!-- 2&#45;&gt;7 -->
<g id="edge2" class="edge"><title>2&#45;&gt;7</title>
<path fill="none" stroke="black" d="M221.741,-96.7488C191.228,-103.07 155.627,-116.308 136.5,-144 127.407,-157.165 129.377,-165.673 136.5,-180 142.502,-192.073 152.714,-202.131 163.509,-210.124"/>
<polygon fill="black" stroke="black" points="171.818,-215.834 161.028,-213.879 167.697,-213.002 163.576,-210.17 163.576,-210.17 163.576,-210.17 167.697,-213.002 166.125,-206.462 171.818,-215.834 171.818,-215.834"/>
</g>
<!-- 12 -->
<g id="node13" class="node"><title>12</title>
<polygon fill="none" stroke="black" points="409.5,-180 285.5,-180 285.5,-144 409.5,-144 409.5,-180"/>
<text text-anchor="middle" x="347.5" y="-158.3" font-family="Times,serif" font-size="14.00">bitween.core.xmpp</text>
</g>
<!-- 2&#45;&gt;12 -->
<g id="edge3" class="edge"><title>2&#45;&gt;12</title>
<path fill="none" stroke="black" d="M294.051,-108.303C302.734,-116.865 313.363,-127.344 322.848,-136.696"/>
<polygon fill="black" stroke="black" points="330.151,-143.896 319.871,-140.079 326.591,-140.385 323.03,-136.875 323.03,-136.875 323.03,-136.875 326.591,-140.385 326.19,-133.67 330.151,-143.896 330.151,-143.896"/>
</g>
<!-- 3&#45;&gt;7 -->
<g id="edge4" class="edge"><title>3&#45;&gt;7</title>
<path fill="none" stroke="black" d="M206.5,-180.303C206.5,-188.017 206.5,-197.288 206.5,-205.888"/>
<polygon fill="black" stroke="black" points="206.5,-215.896 202,-205.896 206.5,-210.896 206.5,-205.896 206.5,-205.896 206.5,-205.896 206.5,-210.896 211,-205.896 206.5,-215.896 206.5,-215.896"/>
</g>
<!-- 16 -->
<g id="node17" class="node"><title>16</title>
<polygon fill="none" stroke="black" points="737,-252 634,-252 634,-216 737,-216 737,-252"/>
<text text-anchor="middle" x="685.5" y="-230.3" font-family="Times,serif" font-size="14.00">bitween.pubsub</text>
</g>
<!-- 3&#45;&gt;16 -->
<g id="edge5" class="edge"><title>3&#45;&gt;16</title>
<path fill="none" stroke="black" d="M267.878,-178.308C270.787,-178.907 273.672,-179.475 276.5,-180 398.613,-202.67 543.023,-218.952 623.449,-227.094"/>
<polygon fill="black" stroke="black" points="633.887,-228.141 623.488,-231.62 628.912,-227.642 623.937,-227.143 623.937,-227.143 623.937,-227.143 628.912,-227.642 624.386,-222.665 633.887,-228.141 633.887,-228.141"/>
</g>
<!-- 4 -->
<g id="node5" class="node"><title>4</title>
<polygon fill="none" stroke="black" points="757,-180 614,-180 614,-144 757,-144 757,-180"/>
<text text-anchor="middle" x="685.5" y="-158.3" font-family="Times,serif" font-size="14.00">bitween.core.api.xmpp</text>
</g>
<!-- 4&#45;&gt;16 -->
<g id="edge6" class="edge"><title>4&#45;&gt;16</title>
<path fill="none" stroke="black" d="M685.5,-180.303C685.5,-188.017 685.5,-197.288 685.5,-205.888"/>
<polygon fill="black" stroke="black" points="685.5,-215.896 681,-205.896 685.5,-210.896 685.5,-205.896 685.5,-205.896 685.5,-205.896 685.5,-210.896 690,-205.896 685.5,-215.896 685.5,-215.896"/>
</g>
<!-- 5 -->
<g id="node6" class="node"><title>5</title>
<polygon fill="none" stroke="black" points="701,-36 598,-36 598,-0 701,-0 701,-36"/>
<text text-anchor="middle" x="649.5" y="-14.3" font-family="Times,serif" font-size="14.00">bitween.core.bt</text>
</g>
<!-- 6 -->
<g id="node7" class="node"><title>6</title>
<polygon fill="none" stroke="black" points="596,-180 427,-180 427,-144 596,-144 596,-180"/>
<text text-anchor="middle" x="511.5" y="-158.3" font-family="Times,serif" font-size="14.00">bitween.core.bt.base_client</text>
</g>
<!-- 6&#45;&gt;7 -->
<g id="edge7" class="edge"><title>6&#45;&gt;7</title>
<path fill="none" stroke="black" d="M437.279,-180.034C390.691,-190.727 330.731,-204.488 283.606,-215.304"/>
<polygon fill="black" stroke="black" points="273.754,-217.565 282.494,-210.942 278.628,-216.446 283.501,-215.328 283.501,-215.328 283.501,-215.328 278.628,-216.446 284.508,-219.714 273.754,-217.565 273.754,-217.565"/>
</g>
<!-- 6&#45;&gt;16 -->
<g id="edge8" class="edge"><title>6&#45;&gt;16</title>
<path fill="none" stroke="black" d="M554.065,-180.124C578.063,-189.778 608.228,-201.913 633.604,-212.122"/>
<polygon fill="black" stroke="black" points="643.073,-215.932 632.116,-216.374 638.434,-214.066 633.796,-212.199 633.796,-212.199 633.796,-212.199 638.434,-214.066 635.475,-208.025 643.073,-215.932 643.073,-215.932"/>
</g>
<!-- 8 -->
<g id="node9" class="node"><title>8</title>
<polygon fill="none" stroke="black" points="187.5,-324 3.5,-324 3.5,-288 187.5,-288 187.5,-324"/>
<text text-anchor="middle" x="95.5" y="-302.3" font-family="Times,serif" font-size="14.00">bitween.core.models.contacts</text>
</g>
<!-- 7&#45;&gt;8 -->
<g id="edge9" class="edge"><title>7&#45;&gt;8</title>
<path fill="none" stroke="black" d="M179.346,-252.124C164.967,-261.192 147.119,-272.448 131.59,-282.241"/>
<polygon fill="black" stroke="black" points="122.758,-287.81 128.816,-278.67 126.987,-285.143 131.217,-282.476 131.217,-282.476 131.217,-282.476 126.987,-285.143 133.617,-286.282 122.758,-287.81 122.758,-287.81"/>
</g>
<!-- 9 -->
<g id="node10" class="node"><title>9</title>
<polygon fill="none" stroke="black" points="429.5,-324 205.5,-324 205.5,-288 429.5,-288 429.5,-324"/>
<text text-anchor="middle" x="317.5" y="-302.3" font-family="Times,serif" font-size="14.00">bitween.core.models.torrent_handles</text>
</g>
<!-- 7&#45;&gt;9 -->
<g id="edge10" class="edge"><title>7&#45;&gt;9</title>
<path fill="none" stroke="black" d="M233.654,-252.124C248.033,-261.192 265.881,-272.448 281.41,-282.241"/>
<polygon fill="black" stroke="black" points="290.242,-287.81 279.383,-286.282 286.013,-285.143 281.783,-282.476 281.783,-282.476 281.783,-282.476 286.013,-285.143 284.184,-278.67 290.242,-287.81 290.242,-287.81"/>
</g>
<!-- 10 -->
<g id="node11" class="node"><title>10</title>
<polygon fill="none" stroke="black" points="191,-396 0,-396 0,-360 191,-360 191,-396"/>
<text text-anchor="middle" x="95.5" y="-374.3" font-family="Times,serif" font-size="14.00">bitween.core.models.torrentlist</text>
</g>
<!-- 8&#45;&gt;10 -->
<g id="edge11" class="edge"><title>8&#45;&gt;10</title>
<path fill="none" stroke="black" d="M95.5,-324.303C95.5,-332.017 95.5,-341.288 95.5,-349.888"/>
<polygon fill="black" stroke="black" points="95.5,-359.896 91.0001,-349.896 95.5,-354.896 95.5001,-349.896 95.5001,-349.896 95.5001,-349.896 95.5,-354.896 100,-349.896 95.5,-359.896 95.5,-359.896"/>
</g>
<!-- 11 -->
<g id="node12" class="node"><title>11</title>
<polygon fill="none" stroke="black" points="579.5,-36 443.5,-36 443.5,-0 579.5,-0 579.5,-36"/>
<text text-anchor="middle" x="511.5" y="-14.3" font-family="Times,serif" font-size="14.00">bitween.core.sentinel</text>
</g>
<!-- 11&#45;&gt;2 -->
<g id="edge12" class="edge"><title>11&#45;&gt;2</title>
<path fill="none" stroke="black" d="M454.313,-36.0344C420.038,-46.244 376.369,-59.2518 340.885,-69.8215"/>
<polygon fill="black" stroke="black" points="331.108,-72.7337 339.408,-65.5661 335.9,-71.3062 340.692,-69.8788 340.692,-69.8788 340.692,-69.8788 335.9,-71.3062 341.977,-74.1916 331.108,-72.7337 331.108,-72.7337"/>
</g>
<!-- 11&#45;&gt;6 -->
<g id="edge13" class="edge"><title>11&#45;&gt;6</title>
<path fill="none" stroke="black" d="M511.5,-36.1285C511.5,-60.3298 511.5,-104.789 511.5,-133.607"/>
<polygon fill="black" stroke="black" points="511.5,-143.811 507,-133.811 511.5,-138.811 511.5,-133.811 511.5,-133.811 511.5,-133.811 511.5,-138.811 516,-133.811 511.5,-143.811 511.5,-143.811"/>
</g>
<!-- 11&#45;&gt;7 -->
<g id="edge14" class="edge"><title>11&#45;&gt;7</title>
<path fill="none" stroke="black" d="M443.479,-34.0478C440.108,-34.7236 436.768,-35.3782 433.5,-36 335.737,-54.6026 302.989,-30.5822 212.5,-72 156.708,-97.5369 97.4691,-125.943 126.5,-180 133.287,-192.638 144.558,-202.77 156.53,-210.652"/>
<polygon fill="black" stroke="black" points="165.316,-215.998 154.434,-214.645 161.045,-213.399 156.773,-210.8 156.773,-210.8 156.773,-210.8 161.045,-213.399 159.112,-206.956 165.316,-215.998 165.316,-215.998"/>
</g>
<!-- 13 -->
<g id="node14" class="node"><title>13</title>
<polygon fill="none" stroke="black" points="1003.5,-180 813.5,-180 813.5,-144 1003.5,-144 1003.5,-180"/>
<text text-anchor="middle" x="908.5" y="-158.3" font-family="Times,serif" font-size="14.00">bitween.core.xmpp.base_client</text>
</g>
<!-- 11&#45;&gt;13 -->
<g id="edge15" class="edge"><title>11&#45;&gt;13</title>
<path fill="none" stroke="black" d="M579.527,-34.0144C582.897,-34.699 586.235,-35.3647 589.5,-36 682.451,-54.0872 713.318,-32.761 799.5,-72 833.362,-87.4175 865.512,-115.99 886.002,-136.608"/>
<polygon fill="black" stroke="black" points="893.005,-143.806 882.806,-139.777 889.518,-140.222 886.031,-136.638 886.031,-136.638 886.031,-136.638 889.518,-140.222 889.256,-133.5 893.005,-143.806 893.005,-143.806"/>
</g>
<!-- 11&#45;&gt;16 -->
<g id="edge16" class="edge"><title>11&#45;&gt;16</title>
<path fill="none" stroke="black" d="M560.777,-36.0627C628.106,-60.4902 743.186,-106.607 766.5,-144 774.965,-157.577 774.11,-165.926 766.5,-180 759.682,-192.609 748.415,-202.7 736.421,-210.55"/>
<polygon fill="black" stroke="black" points="727.612,-215.874 733.842,-206.85 731.891,-213.288 736.17,-210.702 736.17,-210.702 736.17,-210.702 731.891,-213.288 738.498,-214.553 727.612,-215.874 727.612,-215.874"/>
</g>
<!-- 13&#45;&gt;7 -->
<g id="edge17" class="edge"><title>13&#45;&gt;7</title>
<path fill="none" stroke="black" d="M813.441,-174.71C797.766,-176.547 781.683,-178.373 766.5,-180 594.359,-198.447 392.079,-216.762 283.956,-226.281"/>
<polygon fill="black" stroke="black" points="273.791,-227.174 283.358,-221.816 278.772,-226.736 283.752,-226.299 283.752,-226.299 283.752,-226.299 278.772,-226.736 284.146,-230.781 273.791,-227.174 273.791,-227.174"/>
</g>
<!-- 14 -->
<g id="node15" class="node"><title>14</title>
<polygon fill="none" stroke="black" points="1021,-252 796,-252 796,-216 1021,-216 1021,-252"/>
<text text-anchor="middle" x="908.5" y="-230.3" font-family="Times,serif" font-size="14.00">bitween.core.xmpp.magnetlinkstanza</text>
</g>
<!-- 13&#45;&gt;14 -->
<g id="edge18" class="edge"><title>13&#45;&gt;14</title>
<path fill="none" stroke="black" d="M908.5,-180.303C908.5,-188.017 908.5,-197.288 908.5,-205.888"/>
<polygon fill="black" stroke="black" points="908.5,-215.896 904,-205.896 908.5,-210.896 908.5,-205.896 908.5,-205.896 908.5,-205.896 908.5,-210.896 913,-205.896 908.5,-215.896 908.5,-215.896"/>
</g>
<!-- 13&#45;&gt;16 -->
<g id="edge19" class="edge"><title>13&#45;&gt;16</title>
<path fill="none" stroke="black" d="M854.233,-180.034C821.847,-190.2 780.623,-203.141 747.029,-213.686"/>
<polygon fill="black" stroke="black" points="737.32,-216.734 745.513,-209.445 742.09,-215.236 746.861,-213.739 746.861,-213.739 746.861,-213.739 742.09,-215.236 748.209,-218.032 737.32,-216.734 737.32,-216.734"/>
</g>
<!-- 15 -->
<g id="node16" class="node"><title>15</title>
<polygon fill="none" stroke="black" points="802,-36 719,-36 719,-0 802,-0 802,-36"/>
<text text-anchor="middle" x="760.5" y="-14.3" font-family="Times,serif" font-size="14.00">bitween.log</text>
</g>
</g>
</svg>
