<?xml version="1.0" encoding="UTF-8" standalone="no"?>
<!DOCTYPE svg PUBLIC "-//W3C//DTD SVG 1.1//EN"
 "http://www.w3.org/Graphics/SVG/1.1/DTD/svg11.dtd">
<!-- Generated by graphviz version 2.36.0 (20140111.2315)
 -->
<!-- Title: classes_bitween Pages: 1 -->
<svg width="937pt" height="818pt"
 viewBox="0.00 0.00 937.00 818.00" xmlns="http://www.w3.org/2000/svg" xmlns:xlink="http://www.w3.org/1999/xlink">
<g id="graph0" class="graph" transform="scale(1 1) rotate(0) translate(4 814)">
<title>classes_bitween</title>
<polygon fill="white" stroke="none" points="-4,4 -4,-814 933,-814 933,4 -4,4"/>
<!-- 0 -->
<g id="node1" class="node"><title>0</title>
<polygon fill="none" stroke="black" points="28,-333 28,-507 140,-507 140,-333 28,-333"/>
<text text-anchor="middle" x="84" y="-491.8" font-family="Times,serif" font-size="14.00">Contact</text>
<polyline fill="none" stroke="black" points="28,-484 140,-484 "/>
<text text-anchor="start" x="36" y="-468.8" font-family="Times,serif" font-size="14.00">torrents</text>
<text text-anchor="start" x="36" y="-453.8" font-family="Times,serif" font-size="14.00">jid : str</text>
<text text-anchor="start" x="36" y="-438.8" font-family="Times,serif" font-size="14.00">lock</text>
<text text-anchor="start" x="36" y="-423.8" font-family="Times,serif" font-size="14.00">ip_v4 : str</text>
<text text-anchor="start" x="36" y="-408.8" font-family="Times,serif" font-size="14.00">ip_v6 : str</text>
<text text-anchor="start" x="36" y="-393.8" font-family="Times,serif" font-size="14.00">last_seen : str</text>
<polyline fill="none" stroke="black" points="28,-386 140,-386 "/>
<text text-anchor="start" x="36" y="-370.8" font-family="Times,serif" font-size="14.00">set_torrents()</text>
<text text-anchor="start" x="36" y="-355.8" font-family="Times,serif" font-size="14.00">torrents_as_dict()</text>
<text text-anchor="start" x="36" y="-340.8" font-family="Times,serif" font-size="14.00">add_torrent()</text>
</g>
<!-- 1 -->
<g id="node2" class="node"><title>1</title>
<polygon fill="none" stroke="black" points="104,-38 104,-122 192,-122 192,-38 104,-38"/>
<text text-anchor="middle" x="148" y="-106.8" font-family="Times,serif" font-size="14.00">ContactList</text>
<polyline fill="none" stroke="black" points="104,-99 192,-99 "/>
<text text-anchor="start" x="112" y="-83.8" font-family="Times,serif" font-size="14.00">lock</text>
<text text-anchor="start" x="112" y="-68.8" font-family="Times,serif" font-size="14.00">dict : dict</text>
<polyline fill="none" stroke="black" points="104,-61 192,-61 "/>
<text text-anchor="start" x="112" y="-45.8" font-family="Times,serif" font-size="14.00">get_contact()</text>
</g>
<!-- 2 -->
<g id="node3" class="node"><title>2</title>
<polygon fill="none" stroke="black" points="214.5,-15.5 214.5,-144.5 291.5,-144.5 291.5,-15.5 214.5,-15.5"/>
<text text-anchor="middle" x="253" y="-129.3" font-family="Times,serif" font-size="14.00">HandleList</text>
<polyline fill="none" stroke="black" points="214.5,-121.5 291.5,-121.5 "/>
<text text-anchor="start" x="222.5" y="-106.3" font-family="Times,serif" font-size="14.00">lock</text>
<text text-anchor="start" x="222.5" y="-91.3" font-family="Times,serif" font-size="14.00">list : list</text>
<polyline fill="none" stroke="black" points="214.5,-83.5 291.5,-83.5 "/>
<text text-anchor="start" x="222.5" y="-68.3" font-family="Times,serif" font-size="14.00">get()</text>
<text text-anchor="start" x="222.5" y="-53.3" font-family="Times,serif" font-size="14.00">rebuild()</text>
<text text-anchor="start" x="222.5" y="-38.3" font-family="Times,serif" font-size="14.00">remove()</text>
<text text-anchor="start" x="222.5" y="-23.3" font-family="Times,serif" font-size="14.00">add()</text>
</g>
<!-- 7 -->
<g id="node8" class="node"><title>7</title>
<polygon fill="none" stroke="black" points="190.5,-273 190.5,-567 315.5,-567 315.5,-273 190.5,-273"/>
<text text-anchor="middle" x="253" y="-551.8" font-family="Times,serif" font-size="14.00">Sentinel</text>
<polyline fill="none" stroke="black" points="190.5,-544 315.5,-544 "/>
<text text-anchor="start" x="198.5" y="-528.8" font-family="Times,serif" font-size="14.00">end : bool</text>
<text text-anchor="start" x="198.5" y="-513.8" font-family="Times,serif" font-size="14.00">name : str</text>
<text text-anchor="start" x="198.5" y="-498.8" font-family="Times,serif" font-size="14.00">bt_client : dict</text>
<text text-anchor="start" x="198.5" y="-483.8" font-family="Times,serif" font-size="14.00">api</text>
<text text-anchor="start" x="198.5" y="-468.8" font-family="Times,serif" font-size="14.00">ip_v4 : str</text>
<text text-anchor="start" x="198.5" y="-453.8" font-family="Times,serif" font-size="14.00">ip_v6 : str</text>
<text text-anchor="start" x="198.5" y="-438.8" font-family="Times,serif" font-size="14.00">got_ip : bool</text>
<text text-anchor="start" x="198.5" y="-423.8" font-family="Times,serif" font-size="14.00">files</text>
<text text-anchor="start" x="198.5" y="-408.8" font-family="Times,serif" font-size="14.00">xmpp_clients : list</text>
<text text-anchor="start" x="198.5" y="-393.8" font-family="Times,serif" font-size="14.00">bt_client : dict</text>
<polyline fill="none" stroke="black" points="190.5,-386 315.5,-386 "/>
<text text-anchor="start" x="198.5" y="-370.8" font-family="Times,serif" font-size="14.00">on_new_handle()</text>
<text text-anchor="start" x="198.5" y="-355.8" font-family="Times,serif" font-size="14.00">run()</text>
<text text-anchor="start" x="198.5" y="-340.8" font-family="Times,serif" font-size="14.00">add_bt_client()</text>
<text text-anchor="start" x="198.5" y="-325.8" font-family="Times,serif" font-size="14.00">on_add_file()</text>
<text text-anchor="start" x="198.5" y="-310.8" font-family="Times,serif" font-size="14.00">on_set_ip_address()</text>
<text text-anchor="start" x="198.5" y="-295.8" font-family="Times,serif" font-size="14.00">on_bt_ready()</text>
<text text-anchor="start" x="198.5" y="-280.8" font-family="Times,serif" font-size="14.00">on_exit()</text>
</g>
<!-- 2&#45;&gt;7 -->
<g id="edge4" class="edge"><title>2&#45;&gt;7</title>
<path fill="none" stroke="black" d="M253,-144.575C253,-177.558 253,-219.46 253,-260.53"/>
<polygon fill="black" stroke="black" points="253,-260.658 257,-266.659 253,-272.658 249,-266.658 253,-260.658"/>
<text text-anchor="middle" x="265" y="-182.3" font-family="Times,serif" font-size="14.00" fill="green">files</text>
</g>
<!-- 3 -->
<g id="node4" class="node"><title>3</title>
<polygon fill="none" stroke="black" points="310,-45 310,-115 394,-115 394,-45 310,-45"/>
<text text-anchor="middle" x="352" y="-99.8" font-family="Times,serif" font-size="14.00">JsonRpcAPI</text>
<polyline fill="none" stroke="black" points="310,-92 394,-92 "/>
<polyline fill="none" stroke="black" points="310,-68 394,-68 "/>
<text text-anchor="start" x="318" y="-52.8" font-family="Times,serif" font-size="14.00">run()</text>
</g>
<!-- 3&#45;&gt;7 -->
<g id="edge5" class="edge"><title>3&#45;&gt;7</title>
<path fill="none" stroke="black" d="M341.963,-115.269C331.774,-150.054 315.257,-206.447 299.204,-261.254"/>
<polygon fill="black" stroke="black" points="299.161,-261.401 301.313,-268.284 295.787,-272.917 293.635,-266.035 299.161,-261.401"/>
<text text-anchor="middle" x="331.5" y="-182.3" font-family="Times,serif" font-size="14.00" fill="green">api</text>
</g>
<!-- 4 -->
<g id="node5" class="node"><title>4</title>
<polygon fill="none" stroke="black" points="653.5,-38 653.5,-122 778.5,-122 778.5,-38 653.5,-38"/>
<text text-anchor="middle" x="716" y="-106.8" font-family="Times,serif" font-size="14.00">MagnetLinksStanza</text>
<polyline fill="none" stroke="black" points="653.5,-99 778.5,-99 "/>
<text text-anchor="start" x="661.5" y="-83.8" font-family="Times,serif" font-size="14.00">xml</text>
<text text-anchor="start" x="661.5" y="-68.8" font-family="Times,serif" font-size="14.00">namespace : str</text>
<polyline fill="none" stroke="black" points="653.5,-61 778.5,-61 "/>
<text text-anchor="middle" x="716" y="-45.8" font-family="Times,serif" font-size="14.00"> </text>
</g>
<!-- 5 -->
<g id="node6" class="node"><title>5</title>
<polygon fill="none" stroke="black" points="426,-680.5 426,-809.5 528,-809.5 528,-680.5 426,-680.5"/>
<text text-anchor="middle" x="477" y="-794.3" font-family="Times,serif" font-size="14.00">PubSubscriber</text>
<polyline fill="none" stroke="black" points="426,-786.5 528,-786.5 "/>
<text text-anchor="start" x="434" y="-771.3" font-family="Times,serif" font-size="14.00">queue</text>
<text text-anchor="start" x="434" y="-756.3" font-family="Times,serif" font-size="14.00">name : str</text>
<polyline fill="none" stroke="black" points="426,-748.5 528,-748.5 "/>
<text text-anchor="start" x="434" y="-733.3" font-family="Times,serif" font-size="14.00">get()</text>
<text text-anchor="start" x="434" y="-718.3" font-family="Times,serif" font-size="14.00">has_messages()</text>
<text text-anchor="start" x="434" y="-703.3" font-family="Times,serif" font-size="14.00">subscribe()</text>
<text text-anchor="start" x="434" y="-688.3" font-family="Times,serif" font-size="14.00">put()</text>
</g>
<!-- 6 -->
<g id="node7" class="node"><title>6</title>
<polygon fill="none" stroke="black" points="333.5,-280.5 333.5,-559.5 502.5,-559.5 502.5,-280.5 333.5,-280.5"/>
<text text-anchor="middle" x="418" y="-544.3" font-family="Times,serif" font-size="14.00">Queue</text>
<polyline fill="none" stroke="black" points="333.5,-536.5 502.5,-536.5 "/>
<text text-anchor="start" x="341.5" y="-521.3" font-family="Times,serif" font-size="14.00">unfinished_tasks : int</text>
<text text-anchor="start" x="341.5" y="-506.3" font-family="Times,serif" font-size="14.00">queue : deque</text>
<text text-anchor="start" x="341.5" y="-491.3" font-family="Times,serif" font-size="14.00">maxsize : int</text>
<text text-anchor="start" x="341.5" y="-476.3" font-family="Times,serif" font-size="14.00">all_tasks_done : _Condition</text>
<text text-anchor="start" x="341.5" y="-461.3" font-family="Times,serif" font-size="14.00">mutex</text>
<text text-anchor="start" x="341.5" y="-446.3" font-family="Times,serif" font-size="14.00">not_full : _Condition</text>
<text text-anchor="start" x="341.5" y="-431.3" font-family="Times,serif" font-size="14.00">not_empty : _Condition</text>
<polyline fill="none" stroke="black" points="333.5,-423.5 502.5,-423.5 "/>
<text text-anchor="start" x="341.5" y="-408.3" font-family="Times,serif" font-size="14.00">qsize()</text>
<text text-anchor="start" x="341.5" y="-393.3" font-family="Times,serif" font-size="14.00">join()</text>
<text text-anchor="start" x="341.5" y="-378.3" font-family="Times,serif" font-size="14.00">get_nowait()</text>
<text text-anchor="start" x="341.5" y="-363.3" font-family="Times,serif" font-size="14.00">get()</text>
<text text-anchor="start" x="341.5" y="-348.3" font-family="Times,serif" font-size="14.00">task_done()</text>
<text text-anchor="start" x="341.5" y="-333.3" font-family="Times,serif" font-size="14.00">full()</text>
<text text-anchor="start" x="341.5" y="-318.3" font-family="Times,serif" font-size="14.00">put_nowait()</text>
<text text-anchor="start" x="341.5" y="-303.3" font-family="Times,serif" font-size="14.00">put()</text>
<text text-anchor="start" x="341.5" y="-288.3" font-family="Times,serif" font-size="14.00">empty()</text>
</g>
<!-- 6&#45;&gt;5 -->
<g id="edge6" class="edge"><title>6&#45;&gt;5</title>
<path fill="none" stroke="black" d="M443.364,-559.856C450.149,-597.001 457.232,-635.777 463.138,-668.113"/>
<polygon fill="black" stroke="black" points="463.185,-668.369 468.198,-673.552 465.341,-680.174 460.328,-674.99 463.185,-668.369"/>
<text text-anchor="middle" x="477.5" y="-650.3" font-family="Times,serif" font-size="14.00" fill="green">queue</text>
</g>
<!-- 7&#45;&gt;5 -->
<g id="edge1" class="edge"><title>7&#45;&gt;5</title>
<path fill="none" stroke="black" d="M291.667,-567.243C300.724,-588.67 311.72,-609.665 325,-628 349.295,-661.544 386.014,-689.945 417.276,-710.249"/>
<polygon fill="none" stroke="black" points="415.618,-713.342 425.934,-715.758 419.376,-707.437 415.618,-713.342"/>
</g>
<!-- 8 -->
<g id="node9" class="node"><title>8</title>
<polygon fill="none" stroke="black" points="797,-0.5 797,-159.5 929,-159.5 929,-0.5 797,-0.5"/>
<text text-anchor="middle" x="863" y="-144.3" font-family="Times,serif" font-size="14.00">Torrent</text>
<polyline fill="none" stroke="black" points="797,-136.5 929,-136.5 "/>
<text text-anchor="start" x="805" y="-121.3" font-family="Times,serif" font-size="14.00">files : NoneType, list</text>
<text text-anchor="start" x="805" y="-106.3" font-family="Times,serif" font-size="14.00">size</text>
<text text-anchor="start" x="805" y="-91.3" font-family="Times,serif" font-size="14.00">hash</text>
<text text-anchor="start" x="805" y="-76.3" font-family="Times,serif" font-size="14.00">names : list</text>
<text text-anchor="start" x="805" y="-61.3" font-family="Times,serif" font-size="14.00">jids_lastseen : list</text>
<polyline fill="none" stroke="black" points="797,-53.5 929,-53.5 "/>
<text text-anchor="start" x="805" y="-38.3" font-family="Times,serif" font-size="14.00">set_files()</text>
<text text-anchor="start" x="805" y="-23.3" font-family="Times,serif" font-size="14.00">as_dict()</text>
<text text-anchor="start" x="805" y="-8.3" font-family="Times,serif" font-size="14.00">add_name()</text>
</g>
<!-- 9 -->
<g id="node10" class="node"><title>9</title>
<polygon fill="none" stroke="black" points="0,-30.5 0,-129.5 78,-129.5 78,-30.5 0,-30.5"/>
<text text-anchor="middle" x="39" y="-114.3" font-family="Times,serif" font-size="14.00">TorrentList</text>
<polyline fill="none" stroke="black" points="0,-106.5 78,-106.5 "/>
<text text-anchor="start" x="8" y="-91.3" font-family="Times,serif" font-size="14.00">lock</text>
<text text-anchor="start" x="8" y="-76.3" font-family="Times,serif" font-size="14.00">list : list</text>
<polyline fill="none" stroke="black" points="0,-68.5 78,-68.5 "/>
<text text-anchor="start" x="8" y="-53.3" font-family="Times,serif" font-size="14.00">add()</text>
<text text-anchor="start" x="8" y="-38.3" font-family="Times,serif" font-size="14.00">as_dict()</text>
</g>
<!-- 9&#45;&gt;0 -->
<g id="edge7" class="edge"><title>9&#45;&gt;0</title>
<path fill="none" stroke="black" d="M29.9776,-129.679C27.5262,-145.077 25.2145,-162.199 24,-178 20.3148,-225.945 31.2276,-277.855 44.7188,-321.175"/>
<polygon fill="black" stroke="black" points="44.8049,-321.443 50.4523,-325.927 48.4853,-332.864 42.8379,-328.38 44.8049,-321.443"/>
<text text-anchor="middle" x="45" y="-182.3" font-family="Times,serif" font-size="14.00" fill="green">torrents</text>
</g>
<!-- 9&#45;&gt;0 -->
<g id="edge8" class="edge"><title>9&#45;&gt;0</title>
<path fill="none" stroke="black" d="M54.6365,-129.917C58.9657,-145.175 63.2314,-162.158 66,-178 74.1373,-224.562 78.5985,-276.816 81.0433,-320.734"/>
<polygon fill="black" stroke="black" points="81.0521,-320.905 85.3609,-326.687 81.6807,-332.888 77.3719,-327.106 81.0521,-320.905"/>
<text text-anchor="middle" x="90" y="-182.3" font-family="Times,serif" font-size="14.00" fill="green">torrents</text>
</g>
<!-- 10 -->
<g id="node11" class="node"><title>10</title>
<polygon fill="none" stroke="black" points="520,-213 520,-627 696,-627 696,-213 520,-213"/>
<text text-anchor="middle" x="608" y="-611.8" font-family="Times,serif" font-size="14.00">TorrentSession</text>
<polyline fill="none" stroke="black" points="520,-604 696,-604 "/>
<text text-anchor="start" x="528" y="-588.8" font-family="Times,serif" font-size="14.00">status : str</text>
<text text-anchor="start" x="528" y="-573.8" font-family="Times,serif" font-size="14.00">end : bool</text>
<text text-anchor="start" x="528" y="-558.8" font-family="Times,serif" font-size="14.00">name : str</text>
<text text-anchor="start" x="528" y="-543.8" font-family="Times,serif" font-size="14.00">statdb : str</text>
<text text-anchor="start" x="528" y="-528.8" font-family="Times,serif" font-size="14.00">handles : list</text>
<text text-anchor="start" x="528" y="-513.8" font-family="Times,serif" font-size="14.00">state_str : list</text>
<text text-anchor="start" x="528" y="-498.8" font-family="Times,serif" font-size="14.00">session</text>
<text text-anchor="start" x="528" y="-483.8" font-family="Times,serif" font-size="14.00">settingname : str</text>
<polyline fill="none" stroke="black" points="520,-476 696,-476 "/>
<text text-anchor="start" x="528" y="-460.8" font-family="Times,serif" font-size="14.00">on_del_torrent()</text>
<text text-anchor="start" x="528" y="-445.8" font-family="Times,serif" font-size="14.00">save_state()</text>
<text text-anchor="start" x="528" y="-430.8" font-family="Times,serif" font-size="14.00">on_add_torrent()</text>
<text text-anchor="start" x="528" y="-415.8" font-family="Times,serif" font-size="14.00">pause()</text>
<text text-anchor="start" x="528" y="-400.8" font-family="Times,serif" font-size="14.00">run()</text>
<text text-anchor="start" x="528" y="-385.8" font-family="Times,serif" font-size="14.00">safe_shutdown()</text>
<text text-anchor="start" x="528" y="-370.8" font-family="Times,serif" font-size="14.00">resume()</text>
<text text-anchor="start" x="528" y="-355.8" font-family="Times,serif" font-size="14.00">on_add_torrent_by_info()</text>
<text text-anchor="start" x="528" y="-340.8" font-family="Times,serif" font-size="14.00">on_add_peer()</text>
<text text-anchor="start" x="528" y="-325.8" font-family="Times,serif" font-size="14.00">erase_all_torrents_from_db()</text>
<text text-anchor="start" x="528" y="-310.8" font-family="Times,serif" font-size="14.00">setup_settings()</text>
<text text-anchor="start" x="528" y="-295.8" font-family="Times,serif" font-size="14.00">handle_queue()</text>
<text text-anchor="start" x="528" y="-280.8" font-family="Times,serif" font-size="14.00">on_generate_torrent()</text>
<text text-anchor="start" x="528" y="-265.8" font-family="Times,serif" font-size="14.00">on_exit()</text>
<text text-anchor="start" x="528" y="-250.8" font-family="Times,serif" font-size="14.00">save()</text>
<text text-anchor="start" x="528" y="-235.8" font-family="Times,serif" font-size="14.00">setup_db()</text>
<text text-anchor="start" x="528" y="-220.8" font-family="Times,serif" font-size="14.00">on_add_magnetlink()</text>
</g>
<!-- 10&#45;&gt;5 -->
<g id="edge2" class="edge"><title>10&#45;&gt;5</title>
<path fill="none" stroke="black" d="M524.294,-627.39C518.12,-642.612 512.181,-657.256 506.721,-670.72"/>
<polygon fill="none" stroke="black" points="503.348,-669.724 502.833,-680.306 509.834,-672.355 503.348,-669.724"/>
</g>
<!-- 11 -->
<g id="node12" class="node"><title>11</title>
<polygon fill="none" stroke="black" points="714,-348 714,-492 880,-492 880,-348 714,-348"/>
<text text-anchor="middle" x="797" y="-476.8" font-family="Times,serif" font-size="14.00">XmppClientBase</text>
<polyline fill="none" stroke="black" points="714,-469 880,-469 "/>
<text text-anchor="start" x="722" y="-453.8" font-family="Times,serif" font-size="14.00">name</text>
<text text-anchor="start" x="722" y="-438.8" font-family="Times,serif" font-size="14.00">settings : dict</text>
<polyline fill="none" stroke="black" points="714,-431 880,-431 "/>
<text text-anchor="start" x="722" y="-415.8" font-family="Times,serif" font-size="14.00">on_magnet_links_publish()</text>
<text text-anchor="start" x="722" y="-400.8" font-family="Times,serif" font-size="14.00">process_queue()</text>
<text text-anchor="start" x="722" y="-385.8" font-family="Times,serif" font-size="14.00">on_update_magnetlinks()</text>
<text text-anchor="start" x="722" y="-370.8" font-family="Times,serif" font-size="14.00">start()</text>
<text text-anchor="start" x="722" y="-355.8" font-family="Times,serif" font-size="14.00">on_exit()</text>
</g>
<!-- 11&#45;&gt;5 -->
<g id="edge3" class="edge"><title>11&#45;&gt;5</title>
<path fill="none" stroke="black" d="M778.232,-492.143C763.802,-535.642 740.111,-590.031 704,-628 658.25,-676.104 588.179,-707.662 537.995,-725.548"/>
<polygon fill="none" stroke="black" points="536.531,-722.352 528.237,-728.944 538.832,-728.963 536.531,-722.352"/>
</g>
<!-- 12 -->
<g id="node13" class="node"><title>12</title>
<polygon fill="none" stroke="black" points="580,-45 580,-115 636,-115 636,-45 580,-45"/>
<text text-anchor="middle" x="608" y="-99.8" font-family="Times,serif" font-size="14.00">session</text>
<polyline fill="none" stroke="black" points="580,-92 636,-92 "/>
<polyline fill="none" stroke="black" points="580,-68 636,-68 "/>
<text text-anchor="middle" x="608" y="-52.8" font-family="Times,serif" font-size="14.00"> </text>
</g>
<!-- 12&#45;&gt;10 -->
<g id="edge9" class="edge"><title>12&#45;&gt;10</title>
<path fill="none" stroke="black" d="M608,-115.269C608,-137.093 608,-167.421 608,-200.528"/>
<polygon fill="black" stroke="black" points="608,-200.84 612,-206.84 608,-212.84 604,-206.84 608,-200.84"/>
<text text-anchor="middle" x="628" y="-182.3" font-family="Times,serif" font-size="14.00" fill="green">session</text>
</g>
</g>
</svg>
