<?xml version="1.0" encoding="UTF-8" standalone="no"?>
<!DOCTYPE svg PUBLIC "-//W3C//DTD SVG 1.1//EN"
 "http://www.w3.org/Graphics/SVG/1.1/DTD/svg11.dtd">
<!-- Generated by graphviz version 2.36.0 (20140111.2315)
 -->
<!-- Title: classes_bitween_big Pages: 1 -->
<svg width="1422pt" height="1074pt"
 viewBox="0.00 0.00 1422.00 1074.00" xmlns="http://www.w3.org/2000/svg" xmlns:xlink="http://www.w3.org/1999/xlink">
<g id="graph0" class="graph" transform="scale(1 1) rotate(0) translate(4 1070)">
<title>classes_bitween_big</title>
<polygon fill="white" stroke="none" points="-4,4 -4,-1070 1418,-1070 1418,4 -4,4"/>
<!-- 0 -->
<g id="node1" class="node"><title>0</title>
<polygon fill="none" stroke="black" points="-0.5,-681 -0.5,-1065 198.5,-1065 198.5,-681 -0.5,-681"/>
<text text-anchor="middle" x="99" y="-1049.8" font-family="Times,serif" font-size="14.00">ClientXMPP</text>
<polyline fill="none" stroke="black" points="-0.5,-1042 198.5,-1042 "/>
<text text-anchor="start" x="7.5" y="-1026.8" font-family="Times,serif" font-size="14.00">default_lang : unicode</text>
<text text-anchor="start" x="7.5" y="-1011.8" font-family="Times,serif" font-size="14.00">authenticated : bool</text>
<text text-anchor="start" x="7.5" y="-996.8" font-family="Times,serif" font-size="14.00">stream_header</text>
<text text-anchor="start" x="7.5" y="-981.8" font-family="Times,serif" font-size="14.00">bindfail : bool</text>
<text text-anchor="start" x="7.5" y="-966.8" font-family="Times,serif" font-size="14.00">dns_service : unicode, NoneType</text>
<text text-anchor="start" x="7.5" y="-951.8" font-family="Times,serif" font-size="14.00">plugin_config : dict</text>
<text text-anchor="start" x="7.5" y="-936.8" font-family="Times,serif" font-size="14.00">client_roster</text>
<text text-anchor="start" x="7.5" y="-921.8" font-family="Times,serif" font-size="14.00">bound : bool</text>
<text text-anchor="start" x="7.5" y="-906.8" font-family="Times,serif" font-size="14.00">escape_quotes : bool</text>
<text text-anchor="start" x="7.5" y="-891.8" font-family="Times,serif" font-size="14.00">stream_footer : unicode</text>
<text text-anchor="start" x="7.5" y="-876.8" font-family="Times,serif" font-size="14.00">sessionstarted : bool</text>
<text text-anchor="start" x="7.5" y="-861.8" font-family="Times,serif" font-size="14.00">default_port : int</text>
<text text-anchor="start" x="7.5" y="-846.8" font-family="Times,serif" font-size="14.00">credentials : dict</text>
<text text-anchor="start" x="7.5" y="-831.8" font-family="Times,serif" font-size="14.00">password</text>
<text text-anchor="start" x="7.5" y="-816.8" font-family="Times,serif" font-size="14.00">plugin_whitelist : list</text>
<text text-anchor="start" x="7.5" y="-801.8" font-family="Times,serif" font-size="14.00">features : set</text>
<polyline fill="none" stroke="black" points="-0.5,-794 198.5,-794 "/>
<text text-anchor="start" x="7.5" y="-778.8" font-family="Times,serif" font-size="14.00">del_roster_item()</text>
<text text-anchor="start" x="7.5" y="-763.8" font-family="Times,serif" font-size="14.00">unregister_feature()</text>
<text text-anchor="start" x="7.5" y="-748.8" font-family="Times,serif" font-size="14.00">update_roster()</text>
<text text-anchor="start" x="7.5" y="-733.8" font-family="Times,serif" font-size="14.00">get_roster()</text>
<text text-anchor="start" x="7.5" y="-718.8" font-family="Times,serif" font-size="14.00">connect()</text>
<text text-anchor="start" x="7.5" y="-703.8" font-family="Times,serif" font-size="14.00">password()</text>
<text text-anchor="start" x="7.5" y="-688.8" font-family="Times,serif" font-size="14.00">register_feature()</text>
</g>
<!-- 1 -->
<g id="node2" class="node"><title>1</title>
<polygon fill="none" stroke="black" points="900,-333 900,-507 1012,-507 1012,-333 900,-333"/>
<text text-anchor="middle" x="956" y="-491.8" font-family="Times,serif" font-size="14.00">Contact</text>
<polyline fill="none" stroke="black" points="900,-484 1012,-484 "/>
<text text-anchor="start" x="908" y="-468.8" font-family="Times,serif" font-size="14.00">torrents</text>
<text text-anchor="start" x="908" y="-453.8" font-family="Times,serif" font-size="14.00">jid : str</text>
<text text-anchor="start" x="908" y="-438.8" font-family="Times,serif" font-size="14.00">lock</text>
<text text-anchor="start" x="908" y="-423.8" font-family="Times,serif" font-size="14.00">ip_v4 : str</text>
<text text-anchor="start" x="908" y="-408.8" font-family="Times,serif" font-size="14.00">ip_v6 : str</text>
<text text-anchor="start" x="908" y="-393.8" font-family="Times,serif" font-size="14.00">last_seen : str</text>
<polyline fill="none" stroke="black" points="900,-386 1012,-386 "/>
<text text-anchor="start" x="908" y="-370.8" font-family="Times,serif" font-size="14.00">set_torrents()</text>
<text text-anchor="start" x="908" y="-355.8" font-family="Times,serif" font-size="14.00">torrents_as_dict()</text>
<text text-anchor="start" x="908" y="-340.8" font-family="Times,serif" font-size="14.00">add_torrent()</text>
</g>
<!-- 2 -->
<g id="node3" class="node"><title>2</title>
<polygon fill="none" stroke="black" points="1033,-38 1033,-122 1121,-122 1121,-38 1033,-38"/>
<text text-anchor="middle" x="1077" y="-106.8" font-family="Times,serif" font-size="14.00">ContactList</text>
<polyline fill="none" stroke="black" points="1033,-99 1121,-99 "/>
<text text-anchor="start" x="1041" y="-83.8" font-family="Times,serif" font-size="14.00">lock</text>
<text text-anchor="start" x="1041" y="-68.8" font-family="Times,serif" font-size="14.00">dict : dict</text>
<polyline fill="none" stroke="black" points="1033,-61 1121,-61 "/>
<text text-anchor="start" x="1041" y="-45.8" font-family="Times,serif" font-size="14.00">get_contact()</text>
</g>
<!-- 3 -->
<g id="node4" class="node"><title>3</title>
<polygon fill="none" stroke="black" points="714.5,-15.5 714.5,-144.5 791.5,-144.5 791.5,-15.5 714.5,-15.5"/>
<text text-anchor="middle" x="753" y="-129.3" font-family="Times,serif" font-size="14.00">HandleList</text>
<polyline fill="none" stroke="black" points="714.5,-121.5 791.5,-121.5 "/>
<text text-anchor="start" x="722.5" y="-106.3" font-family="Times,serif" font-size="14.00">lock</text>
<text text-anchor="start" x="722.5" y="-91.3" font-family="Times,serif" font-size="14.00">list : list</text>
<polyline fill="none" stroke="black" points="714.5,-83.5 791.5,-83.5 "/>
<text text-anchor="start" x="722.5" y="-68.3" font-family="Times,serif" font-size="14.00">get()</text>
<text text-anchor="start" x="722.5" y="-53.3" font-family="Times,serif" font-size="14.00">rebuild()</text>
<text text-anchor="start" x="722.5" y="-38.3" font-family="Times,serif" font-size="14.00">remove()</text>
<text text-anchor="start" x="722.5" y="-23.3" font-family="Times,serif" font-size="14.00">add()</text>
</g>
<!-- 8 -->
<g id="node9" class="node"><title>8</title>
<polygon fill="none" stroke="black" points="698.5,-273 698.5,-567 823.5,-567 823.5,-273 698.5,-273"/>
<text text-anchor="middle" x="761" y="-551.8" font-family="Times,serif" font-size="14.00">Sentinel</text>
<polyline fill="none" stroke="black" points="698.5,-544 823.5,-544 "/>
<text text-anchor="start" x="706.5" y="-528.8" font-family="Times,serif" font-size="14.00">end : bool</text>
<text text-anchor="start" x="706.5" y="-513.8" font-family="Times,serif" font-size="14.00">name : str</text>
<text text-anchor="start" x="706.5" y="-498.8" font-family="Times,serif" font-size="14.00">bt_client : dict</text>
<text text-anchor="start" x="706.5" y="-483.8" font-family="Times,serif" font-size="14.00">api</text>
<text text-anchor="start" x="706.5" y="-468.8" font-family="Times,serif" font-size="14.00">ip_v4 : str</text>
<text text-anchor="start" x="706.5" y="-453.8" font-family="Times,serif" font-size="14.00">ip_v6 : str</text>
<text text-anchor="start" x="706.5" y="-438.8" font-family="Times,serif" font-size="14.00">got_ip : bool</text>
<text text-anchor="start" x="706.5" y="-423.8" font-family="Times,serif" font-size="14.00">files</text>
<text text-anchor="start" x="706.5" y="-408.8" font-family="Times,serif" font-size="14.00">xmpp_clients : list</text>
<text text-anchor="start" x="706.5" y="-393.8" font-family="Times,serif" font-size="14.00">bt_client : dict</text>
<polyline fill="none" stroke="black" points="698.5,-386 823.5,-386 "/>
<text text-anchor="start" x="706.5" y="-370.8" font-family="Times,serif" font-size="14.00">on_new_handle()</text>
<text text-anchor="start" x="706.5" y="-355.8" font-family="Times,serif" font-size="14.00">run()</text>
<text text-anchor="start" x="706.5" y="-340.8" font-family="Times,serif" font-size="14.00">add_bt_client()</text>
<text text-anchor="start" x="706.5" y="-325.8" font-family="Times,serif" font-size="14.00">on_add_file()</text>
<text text-anchor="start" x="706.5" y="-310.8" font-family="Times,serif" font-size="14.00">on_set_ip_address()</text>
<text text-anchor="start" x="706.5" y="-295.8" font-family="Times,serif" font-size="14.00">on_bt_ready()</text>
<text text-anchor="start" x="706.5" y="-280.8" font-family="Times,serif" font-size="14.00">on_exit()</text>
</g>
<!-- 3&#45;&gt;8 -->
<g id="edge8" class="edge"><title>3&#45;&gt;8</title>
<path fill="none" stroke="black" d="M754.505,-144.575C755.285,-177.558 756.277,-219.46 757.249,-260.53"/>
<polygon fill="black" stroke="black" points="757.252,-260.662 761.393,-266.565 757.536,-272.658 753.395,-266.755 757.252,-260.662"/>
<text text-anchor="middle" x="767" y="-182.3" font-family="Times,serif" font-size="14.00" fill="green">files</text>
</g>
<!-- 4 -->
<g id="node5" class="node"><title>4</title>
<polygon fill="none" stroke="black" points="810,-45 810,-115 894,-115 894,-45 810,-45"/>
<text text-anchor="middle" x="852" y="-99.8" font-family="Times,serif" font-size="14.00">JsonRpcAPI</text>
<polyline fill="none" stroke="black" points="810,-92 894,-92 "/>
<polyline fill="none" stroke="black" points="810,-68 894,-68 "/>
<text text-anchor="start" x="818" y="-52.8" font-family="Times,serif" font-size="14.00">run()</text>
</g>
<!-- 4&#45;&gt;8 -->
<g id="edge9" class="edge"><title>4&#45;&gt;8</title>
<path fill="none" stroke="black" d="M840.402,-115.402C834.328,-133.872 826.94,-157.081 821,-178 813.4,-204.766 805.819,-233.352 798.73,-261.139"/>
<polygon fill="black" stroke="black" points="798.674,-261.359 801.076,-268.159 795.724,-272.991 793.322,-266.192 798.674,-261.359"/>
<text text-anchor="middle" x="829.5" y="-182.3" font-family="Times,serif" font-size="14.00" fill="green">api</text>
</g>
<!-- 9 -->
<g id="node10" class="node"><title>9</title>
<polygon fill="none" stroke="black" points="549.5,-748.5 549.5,-997.5 636.5,-997.5 636.5,-748.5 549.5,-748.5"/>
<text text-anchor="middle" x="593" y="-982.3" font-family="Times,serif" font-size="14.00">Thread</text>
<polyline fill="none" stroke="black" points="549.5,-974.5 636.5,-974.5 "/>
<text text-anchor="start" x="557.5" y="-959.3" font-family="Times,serif" font-size="14.00">daemon</text>
<text text-anchor="start" x="557.5" y="-944.3" font-family="Times,serif" font-size="14.00">name</text>
<text text-anchor="start" x="557.5" y="-929.3" font-family="Times,serif" font-size="14.00">is_alive</text>
<polyline fill="none" stroke="black" points="549.5,-921.5 636.5,-921.5 "/>
<text text-anchor="start" x="557.5" y="-906.3" font-family="Times,serif" font-size="14.00">isDaemon()</text>
<text text-anchor="start" x="557.5" y="-891.3" font-family="Times,serif" font-size="14.00">isAlive()</text>
<text text-anchor="start" x="557.5" y="-876.3" font-family="Times,serif" font-size="14.00">start()</text>
<text text-anchor="start" x="557.5" y="-861.3" font-family="Times,serif" font-size="14.00">getName()</text>
<text text-anchor="start" x="557.5" y="-846.3" font-family="Times,serif" font-size="14.00">run()</text>
<text text-anchor="start" x="557.5" y="-831.3" font-family="Times,serif" font-size="14.00">setName()</text>
<text text-anchor="start" x="557.5" y="-816.3" font-family="Times,serif" font-size="14.00">setDaemon()</text>
<text text-anchor="start" x="557.5" y="-801.3" font-family="Times,serif" font-size="14.00">daemon()</text>
<text text-anchor="start" x="557.5" y="-786.3" font-family="Times,serif" font-size="14.00">ident()</text>
<text text-anchor="start" x="557.5" y="-771.3" font-family="Times,serif" font-size="14.00">join()</text>
<text text-anchor="start" x="557.5" y="-756.3" font-family="Times,serif" font-size="14.00">name()</text>
</g>
<!-- 4&#45;&gt;9 -->
<g id="edge1" class="edge"><title>4&#45;&gt;9</title>
<path fill="none" stroke="black" d="M858.912,-115.188C875.219,-204.141 909.182,-448.357 832,-628 792.845,-719.133 702.819,-795.346 645.118,-837.228"/>
<polygon fill="none" stroke="black" points="642.937,-834.485 636.849,-843.156 647.015,-840.174 642.937,-834.485"/>
</g>
<!-- 5 -->
<g id="node6" class="node"><title>5</title>
<polygon fill="none" stroke="black" points="1138.5,-38 1138.5,-122 1263.5,-122 1263.5,-38 1138.5,-38"/>
<text text-anchor="middle" x="1201" y="-106.8" font-family="Times,serif" font-size="14.00">MagnetLinksStanza</text>
<polyline fill="none" stroke="black" points="1138.5,-99 1263.5,-99 "/>
<text text-anchor="start" x="1146.5" y="-83.8" font-family="Times,serif" font-size="14.00">xml</text>
<text text-anchor="start" x="1146.5" y="-68.8" font-family="Times,serif" font-size="14.00">namespace : str</text>
<polyline fill="none" stroke="black" points="1138.5,-61 1263.5,-61 "/>
<text text-anchor="middle" x="1201" y="-45.8" font-family="Times,serif" font-size="14.00"> </text>
</g>
<!-- 6 -->
<g id="node7" class="node"><title>6</title>
<polygon fill="none" stroke="black" points="336,-808.5 336,-937.5 438,-937.5 438,-808.5 336,-808.5"/>
<text text-anchor="middle" x="387" y="-922.3" font-family="Times,serif" font-size="14.00">PubSubscriber</text>
<polyline fill="none" stroke="black" points="336,-914.5 438,-914.5 "/>
<text text-anchor="start" x="344" y="-899.3" font-family="Times,serif" font-size="14.00">queue</text>
<text text-anchor="start" x="344" y="-884.3" font-family="Times,serif" font-size="14.00">name : str</text>
<polyline fill="none" stroke="black" points="336,-876.5 438,-876.5 "/>
<text text-anchor="start" x="344" y="-861.3" font-family="Times,serif" font-size="14.00">get()</text>
<text text-anchor="start" x="344" y="-846.3" font-family="Times,serif" font-size="14.00">has_messages()</text>
<text text-anchor="start" x="344" y="-831.3" font-family="Times,serif" font-size="14.00">subscribe()</text>
<text text-anchor="start" x="344" y="-816.3" font-family="Times,serif" font-size="14.00">put()</text>
</g>
<!-- 7 -->
<g id="node8" class="node"><title>7</title>
<polygon fill="none" stroke="black" points="200.5,-280.5 200.5,-559.5 333.5,-559.5 333.5,-280.5 200.5,-280.5"/>
<text text-anchor="middle" x="267" y="-544.3" font-family="Times,serif" font-size="14.00">Queue</text>
<polyline fill="none" stroke="black" points="200.5,-536.5 333.5,-536.5 "/>
<text text-anchor="start" x="208.5" y="-521.3" font-family="Times,serif" font-size="14.00">unfinished_tasks : int</text>
<text text-anchor="start" x="208.5" y="-506.3" font-family="Times,serif" font-size="14.00">queue : deque</text>
<text text-anchor="start" x="208.5" y="-491.3" font-family="Times,serif" font-size="14.00">maxsize : int</text>
<text text-anchor="start" x="208.5" y="-476.3" font-family="Times,serif" font-size="14.00">all_tasks_done</text>
<text text-anchor="start" x="208.5" y="-461.3" font-family="Times,serif" font-size="14.00">mutex</text>
<text text-anchor="start" x="208.5" y="-446.3" font-family="Times,serif" font-size="14.00">not_full</text>
<text text-anchor="start" x="208.5" y="-431.3" font-family="Times,serif" font-size="14.00">not_empty</text>
<polyline fill="none" stroke="black" points="200.5,-423.5 333.5,-423.5 "/>
<text text-anchor="start" x="208.5" y="-408.3" font-family="Times,serif" font-size="14.00">qsize()</text>
<text text-anchor="start" x="208.5" y="-393.3" font-family="Times,serif" font-size="14.00">join()</text>
<text text-anchor="start" x="208.5" y="-378.3" font-family="Times,serif" font-size="14.00">get_nowait()</text>
<text text-anchor="start" x="208.5" y="-363.3" font-family="Times,serif" font-size="14.00">get()</text>
<text text-anchor="start" x="208.5" y="-348.3" font-family="Times,serif" font-size="14.00">task_done()</text>
<text text-anchor="start" x="208.5" y="-333.3" font-family="Times,serif" font-size="14.00">full()</text>
<text text-anchor="start" x="208.5" y="-318.3" font-family="Times,serif" font-size="14.00">put_nowait()</text>
<text text-anchor="start" x="208.5" y="-303.3" font-family="Times,serif" font-size="14.00">put()</text>
<text text-anchor="start" x="208.5" y="-288.3" font-family="Times,serif" font-size="14.00">empty()</text>
</g>
<!-- 7&#45;&gt;6 -->
<g id="edge10" class="edge"><title>7&#45;&gt;6</title>
<path fill="none" stroke="black" d="M297.536,-559.674C305.4,-593.277 314.153,-629.017 323,-662 335.088,-707.064 350.25,-757.05 362.782,-796.945"/>
<polygon fill="black" stroke="black" points="362.801,-797.006 368.42,-801.525 366.41,-808.45 360.791,-803.931 362.801,-797.006"/>
<text text-anchor="middle" x="339.5" y="-650.3" font-family="Times,serif" font-size="14.00" fill="green">queue</text>
</g>
<!-- 8&#45;&gt;6 -->
<g id="edge2" class="edge"><title>8&#45;&gt;6</title>
<path fill="none" stroke="black" d="M729.058,-567.114C719.11,-589.557 706.076,-610.906 689,-628 639.43,-677.622 597.212,-639.425 540,-680 495.37,-711.651 457.028,-759.837 429.889,-800.017"/>
<polygon fill="none" stroke="black" points="426.897,-798.197 424.27,-808.461 432.724,-802.075 426.897,-798.197"/>
</g>
<!-- 8&#45;&gt;9 -->
<g id="edge3" class="edge"><title>8&#45;&gt;9</title>
<path fill="none" stroke="black" d="M710.987,-567.149C703.739,-587.63 696.27,-608.376 689,-628 673.664,-669.396 656.172,-714.443 640.356,-754.434"/>
<polygon fill="none" stroke="black" points="637.016,-753.364 636.587,-763.951 643.524,-755.942 637.016,-753.364"/>
</g>
<!-- 10 -->
<g id="node11" class="node"><title>10</title>
<polygon fill="none" stroke="black" points="1282,-0.5 1282,-159.5 1414,-159.5 1414,-0.5 1282,-0.5"/>
<text text-anchor="middle" x="1348" y="-144.3" font-family="Times,serif" font-size="14.00">Torrent</text>
<polyline fill="none" stroke="black" points="1282,-136.5 1414,-136.5 "/>
<text text-anchor="start" x="1290" y="-121.3" font-family="Times,serif" font-size="14.00">files : NoneType, list</text>
<text text-anchor="start" x="1290" y="-106.3" font-family="Times,serif" font-size="14.00">size</text>
<text text-anchor="start" x="1290" y="-91.3" font-family="Times,serif" font-size="14.00">hash</text>
<text text-anchor="start" x="1290" y="-76.3" font-family="Times,serif" font-size="14.00">names : list</text>
<text text-anchor="start" x="1290" y="-61.3" font-family="Times,serif" font-size="14.00">jids_lastseen : list</text>
<polyline fill="none" stroke="black" points="1282,-53.5 1414,-53.5 "/>
<text text-anchor="start" x="1290" y="-38.3" font-family="Times,serif" font-size="14.00">set_files()</text>
<text text-anchor="start" x="1290" y="-23.3" font-family="Times,serif" font-size="14.00">as_dict()</text>
<text text-anchor="start" x="1290" y="-8.3" font-family="Times,serif" font-size="14.00">add_name()</text>
</g>
<!-- 11 -->
<g id="node12" class="node"><title>11</title>
<polygon fill="none" stroke="black" points="937,-30.5 937,-129.5 1015,-129.5 1015,-30.5 937,-30.5"/>
<text text-anchor="middle" x="976" y="-114.3" font-family="Times,serif" font-size="14.00">TorrentList</text>
<polyline fill="none" stroke="black" points="937,-106.5 1015,-106.5 "/>
<text text-anchor="start" x="945" y="-91.3" font-family="Times,serif" font-size="14.00">lock</text>
<text text-anchor="start" x="945" y="-76.3" font-family="Times,serif" font-size="14.00">list : list</text>
<polyline fill="none" stroke="black" points="937,-68.5 1015,-68.5 "/>
<text text-anchor="start" x="945" y="-53.3" font-family="Times,serif" font-size="14.00">add()</text>
<text text-anchor="start" x="945" y="-38.3" font-family="Times,serif" font-size="14.00">as_dict()</text>
</g>
<!-- 11&#45;&gt;1 -->
<g id="edge11" class="edge"><title>11&#45;&gt;1</title>
<path fill="none" stroke="black" d="M950.977,-129.622C944.44,-144.724 938.305,-161.694 935,-178 925.582,-224.472 928.555,-276.826 934.822,-320.837"/>
<polygon fill="black" stroke="black" points="934.825,-320.856 939.678,-326.19 936.622,-332.721 931.768,-327.388 934.825,-320.856"/>
<text text-anchor="middle" x="956" y="-182.3" font-family="Times,serif" font-size="14.00" fill="green">torrents</text>
</g>
<!-- 11&#45;&gt;1 -->
<g id="edge12" class="edge"><title>11&#45;&gt;1</title>
<path fill="none" stroke="black" d="M976.602,-129.848C976.765,-145.254 976.919,-162.338 977,-178 977.037,-185.111 977.331,-186.897 977,-194 975.061,-235.642 971.114,-281.479 967.159,-320.855"/>
<polygon fill="black" stroke="black" points="967.153,-320.917 970.523,-327.293 965.934,-332.855 962.564,-326.48 967.153,-320.917"/>
<text text-anchor="middle" x="998" y="-182.3" font-family="Times,serif" font-size="14.00" fill="green">torrents</text>
</g>
<!-- 12 -->
<g id="node13" class="node"><title>12</title>
<polygon fill="none" stroke="black" points="505,-213 505,-627 681,-627 681,-213 505,-213"/>
<text text-anchor="middle" x="593" y="-611.8" font-family="Times,serif" font-size="14.00">TorrentSession</text>
<polyline fill="none" stroke="black" points="505,-604 681,-604 "/>
<text text-anchor="start" x="513" y="-588.8" font-family="Times,serif" font-size="14.00">status : str</text>
<text text-anchor="start" x="513" y="-573.8" font-family="Times,serif" font-size="14.00">end : bool</text>
<text text-anchor="start" x="513" y="-558.8" font-family="Times,serif" font-size="14.00">name : str</text>
<text text-anchor="start" x="513" y="-543.8" font-family="Times,serif" font-size="14.00">statdb : str</text>
<text text-anchor="start" x="513" y="-528.8" font-family="Times,serif" font-size="14.00">handles : list</text>
<text text-anchor="start" x="513" y="-513.8" font-family="Times,serif" font-size="14.00">state_str : list</text>
<text text-anchor="start" x="513" y="-498.8" font-family="Times,serif" font-size="14.00">session</text>
<text text-anchor="start" x="513" y="-483.8" font-family="Times,serif" font-size="14.00">settingname : str</text>
<polyline fill="none" stroke="black" points="505,-476 681,-476 "/>
<text text-anchor="start" x="513" y="-460.8" font-family="Times,serif" font-size="14.00">on_del_torrent()</text>
<text text-anchor="start" x="513" y="-445.8" font-family="Times,serif" font-size="14.00">save_state()</text>
<text text-anchor="start" x="513" y="-430.8" font-family="Times,serif" font-size="14.00">on_add_torrent()</text>
<text text-anchor="start" x="513" y="-415.8" font-family="Times,serif" font-size="14.00">pause()</text>
<text text-anchor="start" x="513" y="-400.8" font-family="Times,serif" font-size="14.00">run()</text>
<text text-anchor="start" x="513" y="-385.8" font-family="Times,serif" font-size="14.00">safe_shutdown()</text>
<text text-anchor="start" x="513" y="-370.8" font-family="Times,serif" font-size="14.00">resume()</text>
<text text-anchor="start" x="513" y="-355.8" font-family="Times,serif" font-size="14.00">on_add_torrent_by_info()</text>
<text text-anchor="start" x="513" y="-340.8" font-family="Times,serif" font-size="14.00">on_add_peer()</text>
<text text-anchor="start" x="513" y="-325.8" font-family="Times,serif" font-size="14.00">erase_all_torrents_from_db()</text>
<text text-anchor="start" x="513" y="-310.8" font-family="Times,serif" font-size="14.00">setup_settings()</text>
<text text-anchor="start" x="513" y="-295.8" font-family="Times,serif" font-size="14.00">handle_queue()</text>
<text text-anchor="start" x="513" y="-280.8" font-family="Times,serif" font-size="14.00">on_generate_torrent()</text>
<text text-anchor="start" x="513" y="-265.8" font-family="Times,serif" font-size="14.00">on_exit()</text>
<text text-anchor="start" x="513" y="-250.8" font-family="Times,serif" font-size="14.00">save()</text>
<text text-anchor="start" x="513" y="-235.8" font-family="Times,serif" font-size="14.00">setup_db()</text>
<text text-anchor="start" x="513" y="-220.8" font-family="Times,serif" font-size="14.00">on_add_magnetlink()</text>
</g>
<!-- 12&#45;&gt;6 -->
<g id="edge4" class="edge"><title>12&#45;&gt;6</title>
<path fill="none" stroke="black" d="M504.89,-613.9C474.902,-679.554 443.193,-748.975 420.223,-799.264"/>
<polygon fill="none" stroke="black" points="417.009,-797.876 416.038,-808.426 423.377,-800.784 417.009,-797.876"/>
</g>
<!-- 12&#45;&gt;9 -->
<g id="edge5" class="edge"><title>12&#45;&gt;9</title>
<path fill="none" stroke="black" d="M593,-627.033C593,-664.745 593,-703.189 593,-738.103"/>
<polygon fill="none" stroke="black" points="589.5,-738.336 593,-748.336 596.5,-738.336 589.5,-738.336"/>
</g>
<!-- 13 -->
<g id="node14" class="node"><title>13</title>
<polygon fill="none" stroke="black" points="16,-348 16,-492 182,-492 182,-348 16,-348"/>
<text text-anchor="middle" x="99" y="-476.8" font-family="Times,serif" font-size="14.00">XmppClientBase</text>
<polyline fill="none" stroke="black" points="16,-469 182,-469 "/>
<text text-anchor="start" x="24" y="-453.8" font-family="Times,serif" font-size="14.00">name</text>
<text text-anchor="start" x="24" y="-438.8" font-family="Times,serif" font-size="14.00">settings : dict</text>
<polyline fill="none" stroke="black" points="16,-431 182,-431 "/>
<text text-anchor="start" x="24" y="-415.8" font-family="Times,serif" font-size="14.00">on_magnet_links_publish()</text>
<text text-anchor="start" x="24" y="-400.8" font-family="Times,serif" font-size="14.00">process_queue()</text>
<text text-anchor="start" x="24" y="-385.8" font-family="Times,serif" font-size="14.00">on_update_magnetlinks()</text>
<text text-anchor="start" x="24" y="-370.8" font-family="Times,serif" font-size="14.00">start()</text>
<text text-anchor="start" x="24" y="-355.8" font-family="Times,serif" font-size="14.00">on_exit()</text>
</g>
<!-- 13&#45;&gt;0 -->
<g id="edge6" class="edge"><title>13&#45;&gt;0</title>
<path fill="none" stroke="black" d="M99,-492.462C99,-540.676 99,-606.886 99,-670.517"/>
<polygon fill="none" stroke="black" points="95.5001,-670.703 99,-680.703 102.5,-670.704 95.5001,-670.703"/>
</g>
<!-- 13&#45;&gt;6 -->
<g id="edge7" class="edge"><title>13&#45;&gt;6</title>
<path fill="none" stroke="black" d="M125.348,-492.264C141.797,-533.269 164.797,-585.019 191,-628 231.188,-693.921 287.146,-761.833 328.987,-809.218"/>
<polygon fill="none" stroke="black" points="326.582,-811.781 335.838,-816.937 331.817,-807.135 326.582,-811.781"/>
</g>
<!-- 14 -->
<g id="node15" class="node"><title>14</title>
<polygon fill="none" stroke="black" points="267.5,-15.5 267.5,-144.5 344.5,-144.5 344.5,-15.5 267.5,-15.5"/>
<text text-anchor="middle" x="306" y="-129.3" font-family="Times,serif" font-size="14.00">_Condition</text>
<polyline fill="none" stroke="black" points="267.5,-121.5 344.5,-121.5 "/>
<text text-anchor="start" x="275.5" y="-106.3" font-family="Times,serif" font-size="14.00">acquire</text>
<text text-anchor="start" x="275.5" y="-91.3" font-family="Times,serif" font-size="14.00">release</text>
<text text-anchor="start" x="275.5" y="-76.3" font-family="Times,serif" font-size="14.00">notify_all</text>
<polyline fill="none" stroke="black" points="267.5,-68.5 344.5,-68.5 "/>
<text text-anchor="start" x="275.5" y="-53.3" font-family="Times,serif" font-size="14.00">notifyAll()</text>
<text text-anchor="start" x="275.5" y="-38.3" font-family="Times,serif" font-size="14.00">notify()</text>
<text text-anchor="start" x="275.5" y="-23.3" font-family="Times,serif" font-size="14.00">wait()</text>
</g>
<!-- 14&#45;&gt;7 -->
<g id="edge13" class="edge"><title>14&#45;&gt;7</title>
<path fill="none" stroke="black" d="M267.351,-90.8603C226.715,-103.522 164.886,-129.841 137,-178 114.484,-216.884 189.646,-210.686 191,-212 207.553,-228.062 220.524,-248.029 230.683,-269.173"/>
<polygon fill="black" stroke="black" points="230.783,-269.395 236.905,-273.206 235.742,-280.323 229.62,-276.512 230.783,-269.395"/>
<text text-anchor="middle" x="177.5" y="-182.3" font-family="Times,serif" font-size="14.00" fill="green">all_tasks_done</text>
</g>
<!-- 14&#45;&gt;7 -->
<g id="edge14" class="edge"><title>14&#45;&gt;7</title>
<path fill="none" stroke="black" d="M267.173,-126.959C256.563,-142.229 246.485,-159.963 241,-178 232.299,-206.613 230.433,-237.913 232.277,-268.202"/>
<polygon fill="black" stroke="black" points="232.28,-268.237 236.728,-273.912 233.2,-280.202 228.752,-274.526 232.28,-268.237"/>
<text text-anchor="middle" x="262.5" y="-182.3" font-family="Times,serif" font-size="14.00" fill="green">not_full</text>
</g>
<!-- 14&#45;&gt;7 -->
<g id="edge15" class="edge"><title>14&#45;&gt;7</title>
<path fill="none" stroke="black" d="M298.664,-144.575C294.612,-179.697 289.392,-224.933 284.364,-268.508"/>
<polygon fill="black" stroke="black" points="284.363,-268.521 287.649,-274.94 282.987,-280.442 279.702,-274.023 284.363,-268.521"/>
<text text-anchor="middle" x="324.5" y="-182.3" font-family="Times,serif" font-size="14.00" fill="green">not_empty</text>
</g>
<!-- 14&#45;&gt;9 -->
<g id="edge16" class="edge"><title>14&#45;&gt;9</title>
<path fill="none" stroke="black" d="M344.763,-109.876C365.747,-127.413 390.479,-151.492 406,-178 413.898,-191.489 412.298,-196.604 415,-212 447.087,-394.824 396.021,-451.023 452,-628 472.069,-691.45 510.617,-756.357 542.342,-803.262"/>
<polygon fill="black" stroke="black" points="542.427,-803.386 549.117,-806.077 549.205,-813.288 542.515,-810.596 542.427,-803.386"/>
<text text-anchor="middle" x="474" y="-416.3" font-family="Times,serif" font-size="14.00" fill="green">__block</text>
</g>
<!-- 15 -->
<g id="node16" class="node"><title>15</title>
<polygon fill="none" stroke="black" points="351.5,-363 351.5,-477 406.5,-477 406.5,-363 351.5,-363"/>
<text text-anchor="middle" x="379" y="-461.8" font-family="Times,serif" font-size="14.00">_Event</text>
<polyline fill="none" stroke="black" points="351.5,-454 406.5,-454 "/>
<text text-anchor="start" x="359.5" y="-438.8" font-family="Times,serif" font-size="14.00">is_set</text>
<polyline fill="none" stroke="black" points="351.5,-431 406.5,-431 "/>
<text text-anchor="start" x="359.5" y="-415.8" font-family="Times,serif" font-size="14.00">set()</text>
<text text-anchor="start" x="359.5" y="-400.8" font-family="Times,serif" font-size="14.00">clear()</text>
<text text-anchor="start" x="359.5" y="-385.8" font-family="Times,serif" font-size="14.00">isSet()</text>
<text text-anchor="start" x="359.5" y="-370.8" font-family="Times,serif" font-size="14.00">wait()</text>
</g>
<!-- 14&#45;&gt;15 -->
<g id="edge17" class="edge"><title>14&#45;&gt;15</title>
<path fill="none" stroke="black" d="M344.501,-144.127C349.824,-155.103 354.618,-166.646 358,-178 374.856,-234.587 379.532,-301.704 380.322,-350.72"/>
<polygon fill="black" stroke="black" points="380.322,-350.775 384.383,-356.734 380.444,-362.774 376.383,-356.815 380.322,-350.775"/>
<text text-anchor="middle" x="382" y="-182.3" font-family="Times,serif" font-size="14.00" fill="green">__cond</text>
</g>
<!-- 15&#45;&gt;9 -->
<g id="edge18" class="edge"><title>15&#45;&gt;9</title>
<path fill="none" stroke="black" d="M361.253,-477.102C348.172,-530.285 338.837,-609.623 379,-662 397.762,-686.468 420.378,-662.848 446,-680 484.903,-706.043 517.807,-745.83 542.557,-782.445"/>
<polygon fill="black" stroke="black" points="542.701,-782.664 549.347,-785.463 549.319,-792.674 542.673,-789.875 542.701,-782.664"/>
<text text-anchor="middle" x="404" y="-650.3" font-family="Times,serif" font-size="14.00" fill="green">__started</text>
</g>
<!-- 16 -->
<g id="node17" class="node"><title>16</title>
<polygon fill="none" stroke="black" points="565,-45 565,-115 621,-115 621,-45 565,-45"/>
<text text-anchor="middle" x="593" y="-99.8" font-family="Times,serif" font-size="14.00">session</text>
<polyline fill="none" stroke="black" points="565,-92 621,-92 "/>
<polyline fill="none" stroke="black" points="565,-68 621,-68 "/>
<text text-anchor="middle" x="593" y="-52.8" font-family="Times,serif" font-size="14.00"> </text>
</g>
<!-- 16&#45;&gt;12 -->
<g id="edge19" class="edge"><title>16&#45;&gt;12</title>
<path fill="none" stroke="black" d="M593,-115.269C593,-137.093 593,-167.421 593,-200.528"/>
<polygon fill="black" stroke="black" points="593,-200.84 597,-206.84 593,-212.84 589,-206.84 593,-200.84"/>
<text text-anchor="middle" x="613" y="-182.3" font-family="Times,serif" font-size="14.00" fill="green">session</text>
</g>
</g>
</svg>
