<?xml version="1.0" encoding="UTF-8" standalone="no"?>
<!DOCTYPE svg PUBLIC "-//W3C//DTD SVG 1.1//EN"
 "http://www.w3.org/Graphics/SVG/1.1/DTD/svg11.dtd">
<!-- Generated by graphviz version 2.38.0 (20140413.2041)
 -->
<!-- Title: classes_bitween Pages: 1 -->
<svg width="987pt" height="830pt"
 viewBox="0.00 0.00 986.50 830.00" xmlns="http://www.w3.org/2000/svg" xmlns:xlink="http://www.w3.org/1999/xlink">
<g id="graph0" class="graph" transform="scale(1 1) rotate(0) translate(4 826)">
<title>classes_bitween</title>
<polygon fill="white" stroke="none" points="-4,4 -4,-826 982.5,-826 982.5,4 -4,4"/>
<!-- 0 -->
<g id="node1" class="node"><title>0</title>
<polygon fill="none" stroke="black" points="0,-331.5 0,-505.5 116,-505.5 116,-331.5 0,-331.5"/>
<text text-anchor="middle" x="58" y="-490.3" font-family="Times,serif" font-size="14.00">Contact</text>
<polyline fill="none" stroke="black" points="0,-482.5 116,-482.5 "/>
<text text-anchor="start" x="8" y="-467.3" font-family="Times,serif" font-size="14.00">ip_v4 : str</text>
<text text-anchor="start" x="8" y="-452.3" font-family="Times,serif" font-size="14.00">ip_v6 : str</text>
<text text-anchor="start" x="8" y="-437.3" font-family="Times,serif" font-size="14.00">jid : str</text>
<text text-anchor="start" x="8" y="-422.3" font-family="Times,serif" font-size="14.00">last_seen : str</text>
<text text-anchor="start" x="8" y="-407.3" font-family="Times,serif" font-size="14.00">lock</text>
<text text-anchor="start" x="8" y="-392.3" font-family="Times,serif" font-size="14.00">torrents</text>
<polyline fill="none" stroke="black" points="0,-384.5 116,-384.5 "/>
<text text-anchor="start" x="8" y="-369.3" font-family="Times,serif" font-size="14.00">add_torrent()</text>
<text text-anchor="start" x="8" y="-354.3" font-family="Times,serif" font-size="14.00">set_torrents()</text>
<text text-anchor="start" x="8" y="-339.3" font-family="Times,serif" font-size="14.00">torrents_as_dict()</text>
</g>
<!-- 1 -->
<g id="node2" class="node"><title>1</title>
<polygon fill="none" stroke="black" points="117,-38 117,-122 209,-122 209,-38 117,-38"/>
<text text-anchor="middle" x="163" y="-106.8" font-family="Times,serif" font-size="14.00">ContactList</text>
<polyline fill="none" stroke="black" points="117,-99 209,-99 "/>
<text text-anchor="start" x="125" y="-83.8" font-family="Times,serif" font-size="14.00">dict : dict</text>
<text text-anchor="start" x="125" y="-68.8" font-family="Times,serif" font-size="14.00">lock</text>
<polyline fill="none" stroke="black" points="117,-61 209,-61 "/>
<text text-anchor="start" x="125" y="-45.8" font-family="Times,serif" font-size="14.00">get_contact()</text>
</g>
<!-- 2 -->
<g id="node3" class="node"><title>2</title>
<polygon fill="none" stroke="black" points="227,-8 227,-152 329,-152 329,-8 227,-8"/>
<text text-anchor="middle" x="278" y="-136.8" font-family="Times,serif" font-size="14.00">HandleList</text>
<polyline fill="none" stroke="black" points="227,-129 329,-129 "/>
<text text-anchor="start" x="235" y="-113.8" font-family="Times,serif" font-size="14.00">ip_address : str</text>
<text text-anchor="start" x="235" y="-98.8" font-family="Times,serif" font-size="14.00">list : list</text>
<text text-anchor="start" x="235" y="-83.8" font-family="Times,serif" font-size="14.00">lock</text>
<polyline fill="none" stroke="black" points="227,-76 329,-76 "/>
<text text-anchor="start" x="235" y="-60.8" font-family="Times,serif" font-size="14.00">add()</text>
<text text-anchor="start" x="235" y="-45.8" font-family="Times,serif" font-size="14.00">get()</text>
<text text-anchor="start" x="235" y="-30.8" font-family="Times,serif" font-size="14.00">rebuild()</text>
<text text-anchor="start" x="235" y="-15.8" font-family="Times,serif" font-size="14.00">remove()</text>
</g>
<!-- 7 -->
<g id="node8" class="node"><title>7</title>
<polygon fill="none" stroke="black" points="274,-271.5 274,-565.5 394,-565.5 394,-271.5 274,-271.5"/>
<text text-anchor="middle" x="334" y="-550.3" font-family="Times,serif" font-size="14.00">Sentinel</text>
<polyline fill="none" stroke="black" points="274,-542.5 394,-542.5 "/>
<text text-anchor="start" x="282" y="-527.3" font-family="Times,serif" font-size="14.00">api</text>
<text text-anchor="start" x="282" y="-512.3" font-family="Times,serif" font-size="14.00">bt_client : dict</text>
<text text-anchor="start" x="282" y="-497.3" font-family="Times,serif" font-size="14.00">bt_client : dict</text>
<text text-anchor="start" x="282" y="-482.3" font-family="Times,serif" font-size="14.00">end : bool</text>
<text text-anchor="start" x="282" y="-467.3" font-family="Times,serif" font-size="14.00">files</text>
<text text-anchor="start" x="282" y="-452.3" font-family="Times,serif" font-size="14.00">got_ip : bool</text>
<text text-anchor="start" x="282" y="-437.3" font-family="Times,serif" font-size="14.00">ip_v4 : str</text>
<text text-anchor="start" x="282" y="-422.3" font-family="Times,serif" font-size="14.00">ip_v6 : str</text>
<text text-anchor="start" x="282" y="-407.3" font-family="Times,serif" font-size="14.00">name : str</text>
<text text-anchor="start" x="282" y="-392.3" font-family="Times,serif" font-size="14.00">xmpp_clients : list</text>
<polyline fill="none" stroke="black" points="274,-384.5 394,-384.5 "/>
<text text-anchor="start" x="282" y="-369.3" font-family="Times,serif" font-size="14.00">add_bt_client()</text>
<text text-anchor="start" x="282" y="-354.3" font-family="Times,serif" font-size="14.00">get_ip_address()</text>
<text text-anchor="start" x="282" y="-339.3" font-family="Times,serif" font-size="14.00">on_add_file()</text>
<text text-anchor="start" x="282" y="-324.3" font-family="Times,serif" font-size="14.00">on_bt_ready()</text>
<text text-anchor="start" x="282" y="-309.3" font-family="Times,serif" font-size="14.00">on_exit()</text>
<text text-anchor="start" x="282" y="-294.3" font-family="Times,serif" font-size="14.00">on_new_handle()</text>
<text text-anchor="start" x="282" y="-279.3" font-family="Times,serif" font-size="14.00">run()</text>
</g>
<!-- 2&#45;&gt;7 -->
<g id="edge4" class="edge"><title>2&#45;&gt;7</title>
<path fill="none" stroke="black" d="M289.876,-152.363C295.091,-183.698 301.437,-221.834 307.673,-259.303"/>
<polygon fill="black" stroke="black" points="307.722,-259.598 312.653,-264.86 309.692,-271.435 304.761,-266.173 307.722,-259.598"/>
<text text-anchor="middle" x="309.5" y="-181.8" font-family="Times,serif" font-size="14.00" fill="green">files</text>
</g>
<!-- 3 -->
<g id="node4" class="node"><title>3</title>
<polygon fill="none" stroke="black" points="346.5,-38 346.5,-122 435.5,-122 435.5,-38 346.5,-38"/>
<text text-anchor="middle" x="391" y="-106.8" font-family="Times,serif" font-size="14.00">JsonRpcAPI</text>
<polyline fill="none" stroke="black" points="346.5,-99 435.5,-99 "/>
<text text-anchor="start" x="354.5" y="-83.8" font-family="Times,serif" font-size="14.00">api_host : str</text>
<text text-anchor="start" x="354.5" y="-68.8" font-family="Times,serif" font-size="14.00">api_port : int</text>
<polyline fill="none" stroke="black" points="346.5,-61 435.5,-61 "/>
<text text-anchor="start" x="354.5" y="-45.8" font-family="Times,serif" font-size="14.00">run()</text>
</g>
<!-- 3&#45;&gt;7 -->
<g id="edge5" class="edge"><title>3&#45;&gt;7</title>
<path fill="none" stroke="black" d="M384.011,-122.262C378.149,-156.868 369.384,-208.612 360.822,-259.158"/>
<polygon fill="black" stroke="black" points="360.772,-259.451 363.714,-266.035 358.768,-271.283 355.826,-264.699 360.772,-259.451"/>
<text text-anchor="middle" x="383.5" y="-181.8" font-family="Times,serif" font-size="14.00" fill="green">api</text>
</g>
<!-- 4 -->
<g id="node5" class="node"><title>4</title>
<polygon fill="none" stroke="black" points="454,-15.5 454,-144.5 582,-144.5 582,-15.5 454,-15.5"/>
<text text-anchor="middle" x="518" y="-129.3" font-family="Times,serif" font-size="14.00">MagnetLinksStanza</text>
<polyline fill="none" stroke="black" points="454,-121.5 582,-121.5 "/>
<text text-anchor="start" x="462" y="-106.3" font-family="Times,serif" font-size="14.00">interfaces : set</text>
<text text-anchor="start" x="462" y="-91.3" font-family="Times,serif" font-size="14.00">name : str</text>
<text text-anchor="start" x="462" y="-76.3" font-family="Times,serif" font-size="14.00">namespace : str</text>
<text text-anchor="start" x="462" y="-61.3" font-family="Times,serif" font-size="14.00">plugin_attrib : str</text>
<text text-anchor="start" x="462" y="-46.3" font-family="Times,serif" font-size="14.00">xml</text>
<polyline fill="none" stroke="black" points="454,-38.5 582,-38.5 "/>
<text text-anchor="middle" x="518" y="-23.3" font-family="Times,serif" font-size="14.00"> </text>
</g>
<!-- 5 -->
<g id="node6" class="node"><title>5</title>
<polygon fill="none" stroke="black" points="545.5,-677.5 545.5,-821.5 650.5,-821.5 650.5,-677.5 545.5,-677.5"/>
<text text-anchor="middle" x="598" y="-806.3" font-family="Times,serif" font-size="14.00">PubSubscriber</text>
<polyline fill="none" stroke="black" points="545.5,-798.5 650.5,-798.5 "/>
<text text-anchor="start" x="553.5" y="-783.3" font-family="Times,serif" font-size="14.00">name : str</text>
<text text-anchor="start" x="553.5" y="-768.3" font-family="Times,serif" font-size="14.00">queue</text>
<polyline fill="none" stroke="black" points="545.5,-760.5 650.5,-760.5 "/>
<text text-anchor="start" x="553.5" y="-745.3" font-family="Times,serif" font-size="14.00">get_message()</text>
<text text-anchor="start" x="553.5" y="-730.3" font-family="Times,serif" font-size="14.00">has_messages()</text>
<text text-anchor="start" x="553.5" y="-715.3" font-family="Times,serif" font-size="14.00">publish()</text>
<text text-anchor="start" x="553.5" y="-700.3" font-family="Times,serif" font-size="14.00">put_message()</text>
<text text-anchor="start" x="553.5" y="-685.3" font-family="Times,serif" font-size="14.00">subscribe()</text>
</g>
<!-- 6 -->
<g id="node7" class="node"><title>6</title>
<polygon fill="none" stroke="black" points="412,-279 412,-558 588,-558 588,-279 412,-279"/>
<text text-anchor="middle" x="500" y="-542.8" font-family="Times,serif" font-size="14.00">Queue</text>
<polyline fill="none" stroke="black" points="412,-535 588,-535 "/>
<text text-anchor="start" x="420" y="-519.8" font-family="Times,serif" font-size="14.00">all_tasks_done : _Condition</text>
<text text-anchor="start" x="420" y="-504.8" font-family="Times,serif" font-size="14.00">maxsize : int</text>
<text text-anchor="start" x="420" y="-489.8" font-family="Times,serif" font-size="14.00">mutex</text>
<text text-anchor="start" x="420" y="-474.8" font-family="Times,serif" font-size="14.00">not_empty : _Condition</text>
<text text-anchor="start" x="420" y="-459.8" font-family="Times,serif" font-size="14.00">not_full : _Condition</text>
<text text-anchor="start" x="420" y="-444.8" font-family="Times,serif" font-size="14.00">queue : deque</text>
<text text-anchor="start" x="420" y="-429.8" font-family="Times,serif" font-size="14.00">unfinished_tasks : int</text>
<polyline fill="none" stroke="black" points="412,-422 588,-422 "/>
<text text-anchor="start" x="420" y="-406.8" font-family="Times,serif" font-size="14.00">empty()</text>
<text text-anchor="start" x="420" y="-391.8" font-family="Times,serif" font-size="14.00">full()</text>
<text text-anchor="start" x="420" y="-376.8" font-family="Times,serif" font-size="14.00">get()</text>
<text text-anchor="start" x="420" y="-361.8" font-family="Times,serif" font-size="14.00">get_nowait()</text>
<text text-anchor="start" x="420" y="-346.8" font-family="Times,serif" font-size="14.00">join()</text>
<text text-anchor="start" x="420" y="-331.8" font-family="Times,serif" font-size="14.00">put()</text>
<text text-anchor="start" x="420" y="-316.8" font-family="Times,serif" font-size="14.00">put_nowait()</text>
<text text-anchor="start" x="420" y="-301.8" font-family="Times,serif" font-size="14.00">qsize()</text>
<text text-anchor="start" x="420" y="-286.8" font-family="Times,serif" font-size="14.00">task_done()</text>
</g>
<!-- 6&#45;&gt;5 -->
<g id="edge6" class="edge"><title>6&#45;&gt;5</title>
<path fill="none" stroke="black" d="M541.277,-558.072C552.179,-594.671 563.603,-633.026 573.319,-665.644"/>
<polygon fill="black" stroke="black" points="573.392,-665.887 578.938,-670.495 576.817,-677.387 571.271,-672.779 573.392,-665.887"/>
<text text-anchor="middle" x="586.5" y="-647.8" font-family="Times,serif" font-size="14.00" fill="green">queue</text>
</g>
<!-- 7&#45;&gt;5 -->
<g id="edge1" class="edge"><title>7&#45;&gt;5</title>
<path fill="none" stroke="black" d="M368.646,-565.664C377.655,-587.181 388.926,-608.095 403,-626 437.758,-670.217 493.2,-702.83 536.098,-723.239"/>
<polygon fill="none" stroke="black" points="534.782,-726.487 545.325,-727.534 537.736,-720.141 534.782,-726.487"/>
</g>
<!-- 8 -->
<g id="node9" class="node"><title>8</title>
<polygon fill="none" stroke="black" points="600.5,-0.5 600.5,-159.5 737.5,-159.5 737.5,-0.5 600.5,-0.5"/>
<text text-anchor="middle" x="669" y="-144.3" font-family="Times,serif" font-size="14.00">Torrent</text>
<polyline fill="none" stroke="black" points="600.5,-136.5 737.5,-136.5 "/>
<text text-anchor="start" x="608.5" y="-121.3" font-family="Times,serif" font-size="14.00">files : NoneType, list</text>
<text text-anchor="start" x="608.5" y="-106.3" font-family="Times,serif" font-size="14.00">hash</text>
<text text-anchor="start" x="608.5" y="-91.3" font-family="Times,serif" font-size="14.00">jids_lastseen : list</text>
<text text-anchor="start" x="608.5" y="-76.3" font-family="Times,serif" font-size="14.00">names : list</text>
<text text-anchor="start" x="608.5" y="-61.3" font-family="Times,serif" font-size="14.00">size</text>
<polyline fill="none" stroke="black" points="600.5,-53.5 737.5,-53.5 "/>
<text text-anchor="start" x="608.5" y="-38.3" font-family="Times,serif" font-size="14.00">add_name()</text>
<text text-anchor="start" x="608.5" y="-23.3" font-family="Times,serif" font-size="14.00">as_dict()</text>
<text text-anchor="start" x="608.5" y="-8.3" font-family="Times,serif" font-size="14.00">set_files()</text>
</g>
<!-- 9 -->
<g id="node10" class="node"><title>9</title>
<polygon fill="none" stroke="black" points="606.5,-211.5 606.5,-625.5 787.5,-625.5 787.5,-211.5 606.5,-211.5"/>
<text text-anchor="middle" x="697" y="-610.3" font-family="Times,serif" font-size="14.00">TorrentClient</text>
<polyline fill="none" stroke="black" points="606.5,-602.5 787.5,-602.5 "/>
<text text-anchor="start" x="614.5" y="-587.3" font-family="Times,serif" font-size="14.00">end : bool</text>
<text text-anchor="start" x="614.5" y="-572.3" font-family="Times,serif" font-size="14.00">handles : list</text>
<text text-anchor="start" x="614.5" y="-557.3" font-family="Times,serif" font-size="14.00">name : str</text>
<text text-anchor="start" x="614.5" y="-542.3" font-family="Times,serif" font-size="14.00">session</text>
<text text-anchor="start" x="614.5" y="-527.3" font-family="Times,serif" font-size="14.00">settingname : str</text>
<text text-anchor="start" x="614.5" y="-512.3" font-family="Times,serif" font-size="14.00">statdb : str</text>
<text text-anchor="start" x="614.5" y="-497.3" font-family="Times,serif" font-size="14.00">state_str : list</text>
<text text-anchor="start" x="614.5" y="-482.3" font-family="Times,serif" font-size="14.00">status : str</text>
<polyline fill="none" stroke="black" points="606.5,-474.5 787.5,-474.5 "/>
<text text-anchor="start" x="614.5" y="-459.3" font-family="Times,serif" font-size="14.00">erase_all_torrents_from_db()</text>
<text text-anchor="start" x="614.5" y="-444.3" font-family="Times,serif" font-size="14.00">handle_queue()</text>
<text text-anchor="start" x="614.5" y="-429.3" font-family="Times,serif" font-size="14.00">on_add_magnetlink()</text>
<text text-anchor="start" x="614.5" y="-414.3" font-family="Times,serif" font-size="14.00">on_add_peer()</text>
<text text-anchor="start" x="614.5" y="-399.3" font-family="Times,serif" font-size="14.00">on_add_torrent()</text>
<text text-anchor="start" x="614.5" y="-384.3" font-family="Times,serif" font-size="14.00">on_add_torrent_by_info()</text>
<text text-anchor="start" x="614.5" y="-369.3" font-family="Times,serif" font-size="14.00">on_del_torrent()</text>
<text text-anchor="start" x="614.5" y="-354.3" font-family="Times,serif" font-size="14.00">on_exit()</text>
<text text-anchor="start" x="614.5" y="-339.3" font-family="Times,serif" font-size="14.00">on_generate_torrent()</text>
<text text-anchor="start" x="614.5" y="-324.3" font-family="Times,serif" font-size="14.00">pause()</text>
<text text-anchor="start" x="614.5" y="-309.3" font-family="Times,serif" font-size="14.00">resume()</text>
<text text-anchor="start" x="614.5" y="-294.3" font-family="Times,serif" font-size="14.00">run()</text>
<text text-anchor="start" x="614.5" y="-279.3" font-family="Times,serif" font-size="14.00">safe_shutdown()</text>
<text text-anchor="start" x="614.5" y="-264.3" font-family="Times,serif" font-size="14.00">save()</text>
<text text-anchor="start" x="614.5" y="-249.3" font-family="Times,serif" font-size="14.00">save_state()</text>
<text text-anchor="start" x="614.5" y="-234.3" font-family="Times,serif" font-size="14.00">setup_db()</text>
<text text-anchor="start" x="614.5" y="-219.3" font-family="Times,serif" font-size="14.00">setup_settings()</text>
</g>
<!-- 9&#45;&gt;5 -->
<g id="edge2" class="edge"><title>9&#45;&gt;5</title>
<path fill="none" stroke="black" d="M635.005,-625.525C630.595,-640.178 626.327,-654.361 622.354,-667.566"/>
<polygon fill="none" stroke="black" points="618.905,-666.88 619.375,-677.465 625.608,-668.897 618.905,-666.88"/>
</g>
<!-- 10 -->
<g id="node11" class="node"><title>10</title>
<polygon fill="none" stroke="black" points="17.5,-30.5 17.5,-129.5 98.5,-129.5 98.5,-30.5 17.5,-30.5"/>
<text text-anchor="middle" x="58" y="-114.3" font-family="Times,serif" font-size="14.00">TorrentList</text>
<polyline fill="none" stroke="black" points="17.5,-106.5 98.5,-106.5 "/>
<text text-anchor="start" x="25.5" y="-91.3" font-family="Times,serif" font-size="14.00">list : list</text>
<text text-anchor="start" x="25.5" y="-76.3" font-family="Times,serif" font-size="14.00">lock</text>
<polyline fill="none" stroke="black" points="17.5,-68.5 98.5,-68.5 "/>
<text text-anchor="start" x="25.5" y="-53.3" font-family="Times,serif" font-size="14.00">add()</text>
<text text-anchor="start" x="25.5" y="-38.3" font-family="Times,serif" font-size="14.00">as_dict()</text>
</g>
<!-- 10&#45;&gt;0 -->
<g id="edge7" class="edge"><title>10&#45;&gt;0</title>
<path fill="none" stroke="black" d="M38.6147,-129.59C33.4491,-144.834 28.5883,-161.892 26,-178 18.5477,-224.377 23.7366,-276.003 31.9341,-319.415"/>
<polygon fill="black" stroke="black" points="31.9825,-319.659 37.0737,-324.766 34.3179,-331.43 29.2267,-326.323 31.9825,-319.659"/>
<text text-anchor="middle" x="47.5" y="-181.8" font-family="Times,serif" font-size="14.00" fill="green">torrents</text>
</g>
<!-- 10&#45;&gt;0 -->
<g id="edge8" class="edge"><title>10&#45;&gt;0</title>
<path fill="none" stroke="black" d="M64.6179,-129.757C66.4157,-145.159 68.1106,-162.263 69,-178 71.6247,-224.438 69.8621,-275.968 67.0424,-319.297"/>
<polygon fill="black" stroke="black" points="67.041,-319.317 70.6221,-325.577 66.2218,-331.289 62.6407,-325.03 67.041,-319.317"/>
<text text-anchor="middle" x="91.5" y="-181.8" font-family="Times,serif" font-size="14.00" fill="green">torrents</text>
</g>
<!-- 11 -->
<g id="node12" class="node"><title>11</title>
<polygon fill="none" stroke="black" points="805.5,-339 805.5,-498 978.5,-498 978.5,-339 805.5,-339"/>
<text text-anchor="middle" x="892" y="-482.8" font-family="Times,serif" font-size="14.00">XmppClient</text>
<polyline fill="none" stroke="black" points="805.5,-475 978.5,-475 "/>
<text text-anchor="start" x="813.5" y="-459.8" font-family="Times,serif" font-size="14.00">name</text>
<text text-anchor="start" x="813.5" y="-444.8" font-family="Times,serif" font-size="14.00">settings : dict</text>
<polyline fill="none" stroke="black" points="805.5,-437 978.5,-437 "/>
<text text-anchor="start" x="813.5" y="-421.8" font-family="Times,serif" font-size="14.00">create_magnetlink_stanza()</text>
<text text-anchor="start" x="813.5" y="-406.8" font-family="Times,serif" font-size="14.00">on_exit()</text>
<text text-anchor="start" x="813.5" y="-391.8" font-family="Times,serif" font-size="14.00">on_magnet_links_publish()</text>
<text text-anchor="start" x="813.5" y="-376.8" font-family="Times,serif" font-size="14.00">on_update_magnetlinks()</text>
<text text-anchor="start" x="813.5" y="-361.8" font-family="Times,serif" font-size="14.00">process_queue()</text>
<text text-anchor="start" x="813.5" y="-346.8" font-family="Times,serif" font-size="14.00">start()</text>
</g>
<!-- 11&#45;&gt;5 -->
<g id="edge3" class="edge"><title>11&#45;&gt;5</title>
<path fill="none" stroke="black" d="M868.159,-498.377C852.756,-539.783 829.453,-589.376 797,-626 759.275,-668.574 703.178,-701.26 660.151,-722.117"/>
<polygon fill="none" stroke="black" points="658.43,-719.06 650.903,-726.517 661.437,-725.381 658.43,-719.06"/>
</g>
</g>
</svg>
