<?xml version="1.0" encoding="UTF-8" standalone="no"?>
<!DOCTYPE svg PUBLIC "-//W3C//DTD SVG 1.1//EN"
 "http://www.w3.org/Graphics/SVG/1.1/DTD/svg11.dtd">
<!-- Generated by graphviz version 2.36.0 (20140111.2315)
 -->
<!-- Title: classes_bitween_small Pages: 1 -->
<svg width="599pt" height="212pt"
 viewBox="0.00 0.00 599.00 212.00" xmlns="http://www.w3.org/2000/svg" xmlns:xlink="http://www.w3.org/1999/xlink">
<g id="graph0" class="graph" transform="scale(1 1) rotate(0) translate(4 208)">
<title>classes_bitween_small</title>
<polygon fill="white" stroke="none" points="-4,4 -4,-208 595,-208 595,4 -4,4"/>
<!-- 0 -->
<g id="node1" class="node"><title>0</title>
<polygon fill="none" stroke="black" points="10.5,-91 10.5,-127 69.5,-127 69.5,-91 10.5,-91"/>
<text text-anchor="middle" x="40" y="-105.3" font-family="Times,serif" font-size="14.00">Contact</text>
</g>
<!-- 1 -->
<g id="node2" class="node"><title>1</title>
<polygon fill="none" stroke="black" points="96,-1 96,-37 176,-37 176,-1 96,-1"/>
<text text-anchor="middle" x="136" y="-15.3" font-family="Times,serif" font-size="14.00">ContactList</text>
</g>
<!-- 2 -->
<g id="node3" class="node"><title>2</title>
<polygon fill="none" stroke="black" points="194.5,-1 194.5,-37 271.5,-37 271.5,-1 194.5,-1"/>
<text text-anchor="middle" x="233" y="-15.3" font-family="Times,serif" font-size="14.00">HandleList</text>
</g>
<!-- 6 -->
<g id="node7" class="node"><title>6</title>
<polygon fill="none" stroke="black" points="251.5,-91 251.5,-127 312.5,-127 312.5,-91 251.5,-91"/>
<text text-anchor="middle" x="282" y="-105.3" font-family="Times,serif" font-size="14.00">Sentinel</text>
</g>
<!-- 2&#45;&gt;6 -->
<g id="edge4" class="edge"><title>2&#45;&gt;6</title>
<path fill="none" stroke="black" d="M242.681,-37.386C249.503,-49.6384 258.781,-66.301 266.611,-80.3633"/>
<polygon fill="black" stroke="black" points="266.668,-80.4653 273.082,-83.7615 272.506,-90.9496 266.092,-87.6534 266.668,-80.4653"/>
<text text-anchor="middle" x="274" y="-60.3" font-family="Times,serif" font-size="14.00" fill="green">files</text>
</g>
<!-- 3 -->
<g id="node4" class="node"><title>3</title>
<polygon fill="none" stroke="black" points="290,-1 290,-37 374,-37 374,-1 290,-1"/>
<text text-anchor="middle" x="332" y="-15.3" font-family="Times,serif" font-size="14.00">JsonRpcAPI</text>
</g>
<!-- 3&#45;&gt;6 -->
<g id="edge5" class="edge"><title>3&#45;&gt;6</title>
<path fill="none" stroke="black" d="M322.122,-37.386C315.16,-49.6384 305.693,-66.301 297.703,-80.3633"/>
<polygon fill="black" stroke="black" points="297.616,-80.5161 298.13,-87.7089 291.688,-90.9496 291.174,-83.7568 297.616,-80.5161"/>
<text text-anchor="middle" x="320.5" y="-60.3" font-family="Times,serif" font-size="14.00" fill="green">api</text>
</g>
<!-- 4 -->
<g id="node5" class="node"><title>4</title>
<polygon fill="none" stroke="black" points="391.5,-1 391.5,-37 516.5,-37 516.5,-1 391.5,-1"/>
<text text-anchor="middle" x="454" y="-15.3" font-family="Times,serif" font-size="14.00">MagnetLinksStanza</text>
</g>
<!-- 5 -->
<g id="node6" class="node"><title>5</title>
<polygon fill="none" stroke="black" points="332.5,-167 332.5,-203 427.5,-203 427.5,-167 332.5,-167"/>
<text text-anchor="middle" x="380" y="-181.3" font-family="Times,serif" font-size="14.00">PubSubscriber</text>
</g>
<!-- 6&#45;&gt;5 -->
<g id="edge1" class="edge"><title>6&#45;&gt;5</title>
<path fill="none" stroke="black" d="M304.729,-127.163C317.964,-137.157 334.829,-149.891 349.239,-160.772"/>
<polygon fill="none" stroke="black" points="347.304,-163.697 357.394,-166.93 351.522,-158.111 347.304,-163.697"/>
</g>
<!-- 7 -->
<g id="node8" class="node"><title>7</title>
<polygon fill="none" stroke="black" points="534.5,-1 534.5,-37 591.5,-37 591.5,-1 534.5,-1"/>
<text text-anchor="middle" x="563" y="-15.3" font-family="Times,serif" font-size="14.00">Torrent</text>
</g>
<!-- 8 -->
<g id="node9" class="node"><title>8</title>
<polygon fill="none" stroke="black" points="0,-1 0,-37 78,-37 78,-1 0,-1"/>
<text text-anchor="middle" x="39" y="-15.3" font-family="Times,serif" font-size="14.00">TorrentList</text>
</g>
<!-- 8&#45;&gt;0 -->
<g id="edge6" class="edge"><title>8&#45;&gt;0</title>
<path fill="none" stroke="black" d="M19.4959,-37.0331C10.7299,-46.8312 3.29371,-59.6215 8,-72 9.18499,-75.1168 10.7772,-78.136 12.621,-81.0125"/>
<polygon fill="black" stroke="black" points="12.787,-81.2274 19.6205,-83.5304 20.1229,-90.724 13.2894,-88.421 12.787,-81.2274"/>
<text text-anchor="middle" x="29" y="-60.3" font-family="Times,serif" font-size="14.00" fill="green">torrents</text>
</g>
<!-- 8&#45;&gt;0 -->
<g id="edge7" class="edge"><title>8&#45;&gt;0</title>
<path fill="none" stroke="black" d="M45.4334,-37.3379C47.2946,-43.1812 49.0732,-49.795 50,-56 51.1137,-63.4557 50.4879,-71.4703 49.1227,-78.9208"/>
<polygon fill="black" stroke="black" points="49.0904,-79.0566 51.5877,-85.8215 46.3038,-90.7286 43.8064,-83.9638 49.0904,-79.0566"/>
<text text-anchor="middle" x="72" y="-60.3" font-family="Times,serif" font-size="14.00" fill="green">torrents</text>
</g>
<!-- 9 -->
<g id="node10" class="node"><title>9</title>
<polygon fill="none" stroke="black" points="331,-91 331,-127 429,-127 429,-91 331,-91"/>
<text text-anchor="middle" x="380" y="-105.3" font-family="Times,serif" font-size="14.00">TorrentSession</text>
</g>
<!-- 9&#45;&gt;5 -->
<g id="edge2" class="edge"><title>9&#45;&gt;5</title>
<path fill="none" stroke="black" d="M380,-127.163C380,-135.942 380,-146.837 380,-156.733"/>
<polygon fill="none" stroke="black" points="376.5,-156.93 380,-166.93 383.5,-156.93 376.5,-156.93"/>
</g>
<!-- 10 -->
<g id="node11" class="node"><title>10</title>
<polygon fill="none" stroke="black" points="447,-91 447,-127 557,-127 557,-91 447,-91"/>
<text text-anchor="middle" x="502" y="-105.3" font-family="Times,serif" font-size="14.00">XmppClientBase</text>
</g>
<!-- 10&#45;&gt;5 -->
<g id="edge3" class="edge"><title>10&#45;&gt;5</title>
<path fill="none" stroke="black" d="M473.704,-127.163C456.766,-137.437 435.052,-150.608 416.793,-161.683"/>
<polygon fill="none" stroke="black" points="414.877,-158.751 408.142,-166.93 418.508,-164.736 414.877,-158.751"/>
</g>
</g>
</svg>
