<?xml version="1.0" encoding="UTF-8" standalone="no"?>
<!DOCTYPE svg PUBLIC "-//W3C//DTD SVG 1.1//EN"
 "http://www.w3.org/Graphics/SVG/1.1/DTD/svg11.dtd">
<!-- Generated by graphviz version 2.38.0 (20140413.2041)
 -->
<!-- Title: classes_bitween_big Pages: 1 -->
<svg width="1455pt" height="1070pt"
 viewBox="0.00 0.00 1455.00 1070.00" xmlns="http://www.w3.org/2000/svg" xmlns:xlink="http://www.w3.org/1999/xlink">
<g id="graph0" class="graph" transform="scale(1 1) rotate(0) translate(4 1066)">
<title>classes_bitween_big</title>
<polygon fill="white" stroke="none" points="-4,4 -4,-1066 1451,-1066 1451,4 -4,4"/>
<!-- 0 -->
<g id="node1" class="node"><title>0</title>
<polygon fill="none" stroke="black" points="0,-677.5 0,-1061.5 209,-1061.5 209,-677.5 0,-677.5"/>
<text text-anchor="middle" x="104.5" y="-1046.3" font-family="Times,serif" font-size="14.00">ClientXMPP</text>
<polyline fill="none" stroke="black" points="0,-1038.5 209,-1038.5 "/>
<text text-anchor="start" x="8" y="-1023.3" font-family="Times,serif" font-size="14.00">authenticated : bool</text>
<text text-anchor="start" x="8" y="-1008.3" font-family="Times,serif" font-size="14.00">bindfail : bool</text>
<text text-anchor="start" x="8" y="-993.3" font-family="Times,serif" font-size="14.00">bound : bool</text>
<text text-anchor="start" x="8" y="-978.3" font-family="Times,serif" font-size="14.00">client_roster</text>
<text text-anchor="start" x="8" y="-963.3" font-family="Times,serif" font-size="14.00">credentials : dict</text>
<text text-anchor="start" x="8" y="-948.3" font-family="Times,serif" font-size="14.00">default_lang : unicode</text>
<text text-anchor="start" x="8" y="-933.3" font-family="Times,serif" font-size="14.00">default_port : int</text>
<text text-anchor="start" x="8" y="-918.3" font-family="Times,serif" font-size="14.00">dns_service : unicode, NoneType</text>
<text text-anchor="start" x="8" y="-903.3" font-family="Times,serif" font-size="14.00">escape_quotes : bool</text>
<text text-anchor="start" x="8" y="-888.3" font-family="Times,serif" font-size="14.00">features : set</text>
<text text-anchor="start" x="8" y="-873.3" font-family="Times,serif" font-size="14.00">password</text>
<text text-anchor="start" x="8" y="-858.3" font-family="Times,serif" font-size="14.00">plugin_config : dict</text>
<text text-anchor="start" x="8" y="-843.3" font-family="Times,serif" font-size="14.00">plugin_whitelist : list</text>
<text text-anchor="start" x="8" y="-828.3" font-family="Times,serif" font-size="14.00">sessionstarted : bool</text>
<text text-anchor="start" x="8" y="-813.3" font-family="Times,serif" font-size="14.00">stream_footer : unicode</text>
<text text-anchor="start" x="8" y="-798.3" font-family="Times,serif" font-size="14.00">stream_header</text>
<polyline fill="none" stroke="black" points="0,-790.5 209,-790.5 "/>
<text text-anchor="start" x="8" y="-775.3" font-family="Times,serif" font-size="14.00">connect()</text>
<text text-anchor="start" x="8" y="-760.3" font-family="Times,serif" font-size="14.00">del_roster_item()</text>
<text text-anchor="start" x="8" y="-745.3" font-family="Times,serif" font-size="14.00">get_roster()</text>
<text text-anchor="start" x="8" y="-730.3" font-family="Times,serif" font-size="14.00">password()</text>
<text text-anchor="start" x="8" y="-715.3" font-family="Times,serif" font-size="14.00">register_feature()</text>
<text text-anchor="start" x="8" y="-700.3" font-family="Times,serif" font-size="14.00">unregister_feature()</text>
<text text-anchor="start" x="8" y="-685.3" font-family="Times,serif" font-size="14.00">update_roster()</text>
</g>
<!-- 1 -->
<g id="node2" class="node"><title>1</title>
<polygon fill="none" stroke="black" points="915.5,-331.5 915.5,-505.5 1031.5,-505.5 1031.5,-331.5 915.5,-331.5"/>
<text text-anchor="middle" x="973.5" y="-490.3" font-family="Times,serif" font-size="14.00">Contact</text>
<polyline fill="none" stroke="black" points="915.5,-482.5 1031.5,-482.5 "/>
<text text-anchor="start" x="923.5" y="-467.3" font-family="Times,serif" font-size="14.00">ip_v4 : str</text>
<text text-anchor="start" x="923.5" y="-452.3" font-family="Times,serif" font-size="14.00">ip_v6 : str</text>
<text text-anchor="start" x="923.5" y="-437.3" font-family="Times,serif" font-size="14.00">jid : str</text>
<text text-anchor="start" x="923.5" y="-422.3" font-family="Times,serif" font-size="14.00">last_seen : str</text>
<text text-anchor="start" x="923.5" y="-407.3" font-family="Times,serif" font-size="14.00">lock</text>
<text text-anchor="start" x="923.5" y="-392.3" font-family="Times,serif" font-size="14.00">torrents</text>
<polyline fill="none" stroke="black" points="915.5,-384.5 1031.5,-384.5 "/>
<text text-anchor="start" x="923.5" y="-369.3" font-family="Times,serif" font-size="14.00">add_torrent()</text>
<text text-anchor="start" x="923.5" y="-354.3" font-family="Times,serif" font-size="14.00">set_torrents()</text>
<text text-anchor="start" x="923.5" y="-339.3" font-family="Times,serif" font-size="14.00">torrents_as_dict()</text>
</g>
<!-- 2 -->
<g id="node3" class="node"><title>2</title>
<polygon fill="none" stroke="black" points="1053.5,-38 1053.5,-122 1145.5,-122 1145.5,-38 1053.5,-38"/>
<text text-anchor="middle" x="1099.5" y="-106.8" font-family="Times,serif" font-size="14.00">ContactList</text>
<polyline fill="none" stroke="black" points="1053.5,-99 1145.5,-99 "/>
<text text-anchor="start" x="1061.5" y="-83.8" font-family="Times,serif" font-size="14.00">dict : dict</text>
<text text-anchor="start" x="1061.5" y="-68.8" font-family="Times,serif" font-size="14.00">lock</text>
<polyline fill="none" stroke="black" points="1053.5,-61 1145.5,-61 "/>
<text text-anchor="start" x="1061.5" y="-45.8" font-family="Times,serif" font-size="14.00">get_contact()</text>
</g>
<!-- 3 -->
<g id="node4" class="node"><title>3</title>
<polygon fill="none" stroke="black" points="703.5,-8 703.5,-152 805.5,-152 805.5,-8 703.5,-8"/>
<text text-anchor="middle" x="754.5" y="-136.8" font-family="Times,serif" font-size="14.00">HandleList</text>
<polyline fill="none" stroke="black" points="703.5,-129 805.5,-129 "/>
<text text-anchor="start" x="711.5" y="-113.8" font-family="Times,serif" font-size="14.00">ip_address : str</text>
<text text-anchor="start" x="711.5" y="-98.8" font-family="Times,serif" font-size="14.00">list : list</text>
<text text-anchor="start" x="711.5" y="-83.8" font-family="Times,serif" font-size="14.00">lock</text>
<polyline fill="none" stroke="black" points="703.5,-76 805.5,-76 "/>
<text text-anchor="start" x="711.5" y="-60.8" font-family="Times,serif" font-size="14.00">add()</text>
<text text-anchor="start" x="711.5" y="-45.8" font-family="Times,serif" font-size="14.00">get()</text>
<text text-anchor="start" x="711.5" y="-30.8" font-family="Times,serif" font-size="14.00">rebuild()</text>
<text text-anchor="start" x="711.5" y="-15.8" font-family="Times,serif" font-size="14.00">remove()</text>
</g>
<!-- 8 -->
<g id="node9" class="node"><title>8</title>
<polygon fill="none" stroke="black" points="719.5,-271.5 719.5,-565.5 839.5,-565.5 839.5,-271.5 719.5,-271.5"/>
<text text-anchor="middle" x="779.5" y="-550.3" font-family="Times,serif" font-size="14.00">Sentinel</text>
<polyline fill="none" stroke="black" points="719.5,-542.5 839.5,-542.5 "/>
<text text-anchor="start" x="727.5" y="-527.3" font-family="Times,serif" font-size="14.00">api</text>
<text text-anchor="start" x="727.5" y="-512.3" font-family="Times,serif" font-size="14.00">bt_client : dict</text>
<text text-anchor="start" x="727.5" y="-497.3" font-family="Times,serif" font-size="14.00">bt_client : dict</text>
<text text-anchor="start" x="727.5" y="-482.3" font-family="Times,serif" font-size="14.00">end : bool</text>
<text text-anchor="start" x="727.5" y="-467.3" font-family="Times,serif" font-size="14.00">files</text>
<text text-anchor="start" x="727.5" y="-452.3" font-family="Times,serif" font-size="14.00">got_ip : bool</text>
<text text-anchor="start" x="727.5" y="-437.3" font-family="Times,serif" font-size="14.00">ip_v4 : str</text>
<text text-anchor="start" x="727.5" y="-422.3" font-family="Times,serif" font-size="14.00">ip_v6 : str</text>
<text text-anchor="start" x="727.5" y="-407.3" font-family="Times,serif" font-size="14.00">name : str</text>
<text text-anchor="start" x="727.5" y="-392.3" font-family="Times,serif" font-size="14.00">xmpp_clients : list</text>
<polyline fill="none" stroke="black" points="719.5,-384.5 839.5,-384.5 "/>
<text text-anchor="start" x="727.5" y="-369.3" font-family="Times,serif" font-size="14.00">add_bt_client()</text>
<text text-anchor="start" x="727.5" y="-354.3" font-family="Times,serif" font-size="14.00">get_ip_address()</text>
<text text-anchor="start" x="727.5" y="-339.3" font-family="Times,serif" font-size="14.00">on_add_file()</text>
<text text-anchor="start" x="727.5" y="-324.3" font-family="Times,serif" font-size="14.00">on_bt_ready()</text>
<text text-anchor="start" x="727.5" y="-309.3" font-family="Times,serif" font-size="14.00">on_exit()</text>
<text text-anchor="start" x="727.5" y="-294.3" font-family="Times,serif" font-size="14.00">on_new_handle()</text>
<text text-anchor="start" x="727.5" y="-279.3" font-family="Times,serif" font-size="14.00">run()</text>
</g>
<!-- 3&#45;&gt;8 -->
<g id="edge8" class="edge"><title>3&#45;&gt;8</title>
<path fill="none" stroke="black" d="M759.802,-152.363C762.13,-183.698 764.963,-221.834 767.747,-259.303"/>
<polygon fill="black" stroke="black" points="767.759,-259.468 772.193,-265.156 768.648,-271.435 764.215,-265.748 767.759,-259.468"/>
<text text-anchor="middle" x="776" y="-181.8" font-family="Times,serif" font-size="14.00" fill="green">files</text>
</g>
<!-- 4 -->
<g id="node5" class="node"><title>4</title>
<polygon fill="none" stroke="black" points="823,-38 823,-122 912,-122 912,-38 823,-38"/>
<text text-anchor="middle" x="867.5" y="-106.8" font-family="Times,serif" font-size="14.00">JsonRpcAPI</text>
<polyline fill="none" stroke="black" points="823,-99 912,-99 "/>
<text text-anchor="start" x="831" y="-83.8" font-family="Times,serif" font-size="14.00">api_host : str</text>
<text text-anchor="start" x="831" y="-68.8" font-family="Times,serif" font-size="14.00">api_port : int</text>
<polyline fill="none" stroke="black" points="823,-61 912,-61 "/>
<text text-anchor="start" x="831" y="-45.8" font-family="Times,serif" font-size="14.00">run()</text>
</g>
<!-- 4&#45;&gt;8 -->
<g id="edge9" class="edge"><title>4&#45;&gt;8</title>
<path fill="none" stroke="black" d="M853.531,-122.331C847.938,-139.468 841.62,-159.606 836.5,-178 829.179,-204.301 821.962,-232.388 815.254,-259.731"/>
<polygon fill="black" stroke="black" points="815.253,-259.738 817.719,-266.515 812.412,-271.397 809.946,-264.621 815.253,-259.738"/>
<text text-anchor="middle" x="845" y="-181.8" font-family="Times,serif" font-size="14.00" fill="green">api</text>
</g>
<!-- 9 -->
<g id="node10" class="node"><title>9</title>
<polygon fill="none" stroke="black" points="623.5,-745 623.5,-994 723.5,-994 723.5,-745 623.5,-745"/>
<text text-anchor="middle" x="673.5" y="-978.8" font-family="Times,serif" font-size="14.00">Thread</text>
<polyline fill="none" stroke="black" points="623.5,-971 723.5,-971 "/>
<text text-anchor="start" x="631.5" y="-955.8" font-family="Times,serif" font-size="14.00">daemon : bool</text>
<text text-anchor="start" x="631.5" y="-940.8" font-family="Times,serif" font-size="14.00">is_alive</text>
<text text-anchor="start" x="631.5" y="-925.8" font-family="Times,serif" font-size="14.00">name</text>
<polyline fill="none" stroke="black" points="623.5,-918 723.5,-918 "/>
<text text-anchor="start" x="631.5" y="-902.8" font-family="Times,serif" font-size="14.00">daemon()</text>
<text text-anchor="start" x="631.5" y="-887.8" font-family="Times,serif" font-size="14.00">getName()</text>
<text text-anchor="start" x="631.5" y="-872.8" font-family="Times,serif" font-size="14.00">ident()</text>
<text text-anchor="start" x="631.5" y="-857.8" font-family="Times,serif" font-size="14.00">isAlive()</text>
<text text-anchor="start" x="631.5" y="-842.8" font-family="Times,serif" font-size="14.00">isDaemon()</text>
<text text-anchor="start" x="631.5" y="-827.8" font-family="Times,serif" font-size="14.00">join()</text>
<text text-anchor="start" x="631.5" y="-812.8" font-family="Times,serif" font-size="14.00">name()</text>
<text text-anchor="start" x="631.5" y="-797.8" font-family="Times,serif" font-size="14.00">run()</text>
<text text-anchor="start" x="631.5" y="-782.8" font-family="Times,serif" font-size="14.00">setDaemon()</text>
<text text-anchor="start" x="631.5" y="-767.8" font-family="Times,serif" font-size="14.00">setName()</text>
<text text-anchor="start" x="631.5" y="-752.8" font-family="Times,serif" font-size="14.00">start()</text>
</g>
<!-- 4&#45;&gt;9 -->
<g id="edge1" class="edge"><title>4&#45;&gt;9</title>
<path fill="none" stroke="black" d="M873.978,-122.112C886.939,-214.987 909.854,-446.865 848.5,-626 824.198,-696.954 771.599,-765.048 730.376,-810.917"/>
<polygon fill="none" stroke="black" points="727.741,-808.613 723.604,-818.367 732.921,-813.322 727.741,-808.613"/>
</g>
<!-- 5 -->
<g id="node6" class="node"><title>5</title>
<polygon fill="none" stroke="black" points="1163.5,-15.5 1163.5,-144.5 1291.5,-144.5 1291.5,-15.5 1163.5,-15.5"/>
<text text-anchor="middle" x="1227.5" y="-129.3" font-family="Times,serif" font-size="14.00">MagnetLinksStanza</text>
<polyline fill="none" stroke="black" points="1163.5,-121.5 1291.5,-121.5 "/>
<text text-anchor="start" x="1171.5" y="-106.3" font-family="Times,serif" font-size="14.00">interfaces : set</text>
<text text-anchor="start" x="1171.5" y="-91.3" font-family="Times,serif" font-size="14.00">name : str</text>
<text text-anchor="start" x="1171.5" y="-76.3" font-family="Times,serif" font-size="14.00">namespace : str</text>
<text text-anchor="start" x="1171.5" y="-61.3" font-family="Times,serif" font-size="14.00">plugin_attrib : str</text>
<text text-anchor="start" x="1171.5" y="-46.3" font-family="Times,serif" font-size="14.00">xml</text>
<polyline fill="none" stroke="black" points="1163.5,-38.5 1291.5,-38.5 "/>
<text text-anchor="middle" x="1227.5" y="-23.3" font-family="Times,serif" font-size="14.00"> </text>
</g>
<!-- 6 -->
<g id="node7" class="node"><title>6</title>
<polygon fill="none" stroke="black" points="284,-797.5 284,-941.5 389,-941.5 389,-797.5 284,-797.5"/>
<text text-anchor="middle" x="336.5" y="-926.3" font-family="Times,serif" font-size="14.00">PubSubscriber</text>
<polyline fill="none" stroke="black" points="284,-918.5 389,-918.5 "/>
<text text-anchor="start" x="292" y="-903.3" font-family="Times,serif" font-size="14.00">name : str</text>
<text text-anchor="start" x="292" y="-888.3" font-family="Times,serif" font-size="14.00">queue</text>
<polyline fill="none" stroke="black" points="284,-880.5 389,-880.5 "/>
<text text-anchor="start" x="292" y="-865.3" font-family="Times,serif" font-size="14.00">get_message()</text>
<text text-anchor="start" x="292" y="-850.3" font-family="Times,serif" font-size="14.00">has_messages()</text>
<text text-anchor="start" x="292" y="-835.3" font-family="Times,serif" font-size="14.00">publish()</text>
<text text-anchor="start" x="292" y="-820.3" font-family="Times,serif" font-size="14.00">put_message()</text>
<text text-anchor="start" x="292" y="-805.3" font-family="Times,serif" font-size="14.00">subscribe()</text>
</g>
<!-- 7 -->
<g id="node8" class="node"><title>7</title>
<polygon fill="none" stroke="black" points="209.5,-279 209.5,-558 345.5,-558 345.5,-279 209.5,-279"/>
<text text-anchor="middle" x="277.5" y="-542.8" font-family="Times,serif" font-size="14.00">Queue</text>
<polyline fill="none" stroke="black" points="209.5,-535 345.5,-535 "/>
<text text-anchor="start" x="217.5" y="-519.8" font-family="Times,serif" font-size="14.00">all_tasks_done</text>
<text text-anchor="start" x="217.5" y="-504.8" font-family="Times,serif" font-size="14.00">maxsize : int</text>
<text text-anchor="start" x="217.5" y="-489.8" font-family="Times,serif" font-size="14.00">mutex</text>
<text text-anchor="start" x="217.5" y="-474.8" font-family="Times,serif" font-size="14.00">not_empty</text>
<text text-anchor="start" x="217.5" y="-459.8" font-family="Times,serif" font-size="14.00">not_full</text>
<text text-anchor="start" x="217.5" y="-444.8" font-family="Times,serif" font-size="14.00">queue : deque</text>
<text text-anchor="start" x="217.5" y="-429.8" font-family="Times,serif" font-size="14.00">unfinished_tasks : int</text>
<polyline fill="none" stroke="black" points="209.5,-422 345.5,-422 "/>
<text text-anchor="start" x="217.5" y="-406.8" font-family="Times,serif" font-size="14.00">empty()</text>
<text text-anchor="start" x="217.5" y="-391.8" font-family="Times,serif" font-size="14.00">full()</text>
<text text-anchor="start" x="217.5" y="-376.8" font-family="Times,serif" font-size="14.00">get()</text>
<text text-anchor="start" x="217.5" y="-361.8" font-family="Times,serif" font-size="14.00">get_nowait()</text>
<text text-anchor="start" x="217.5" y="-346.8" font-family="Times,serif" font-size="14.00">join()</text>
<text text-anchor="start" x="217.5" y="-331.8" font-family="Times,serif" font-size="14.00">put()</text>
<text text-anchor="start" x="217.5" y="-316.8" font-family="Times,serif" font-size="14.00">put_nowait()</text>
<text text-anchor="start" x="217.5" y="-301.8" font-family="Times,serif" font-size="14.00">qsize()</text>
<text text-anchor="start" x="217.5" y="-286.8" font-family="Times,serif" font-size="14.00">task_done()</text>
</g>
<!-- 7&#45;&gt;6 -->
<g id="edge10" class="edge"><title>7&#45;&gt;6</title>
<path fill="none" stroke="black" d="M295.724,-558.185C305.503,-632.604 317.228,-721.833 325.589,-785.469"/>
<polygon fill="black" stroke="black" points="325.599,-785.545 330.347,-790.973 327.163,-797.443 322.415,-792.015 325.599,-785.545"/>
<text text-anchor="middle" x="327" y="-647.8" font-family="Times,serif" font-size="14.00" fill="green">queue</text>
</g>
<!-- 8&#45;&gt;6 -->
<g id="edge2" class="edge"><title>8&#45;&gt;6</title>
<path fill="none" stroke="black" d="M747.9,-565.709C738.492,-587.653 726.299,-608.69 710.5,-626 697.084,-640.699 687.179,-634.862 669.5,-644 644.176,-657.089 638.472,-661.573 614.5,-677 538.559,-725.87 453.318,-785.289 397.487,-824.853"/>
<polygon fill="none" stroke="black" points="395.257,-822.144 389.126,-830.785 399.307,-827.853 395.257,-822.144"/>
</g>
<!-- 8&#45;&gt;9 -->
<g id="edge3" class="edge"><title>8&#45;&gt;9</title>
<path fill="none" stroke="black" d="M750.31,-565.756C743.774,-596.619 736.65,-628.937 729.5,-659 723.636,-683.655 716.984,-709.829 710.364,-735.019"/>
<polygon fill="none" stroke="black" points="706.899,-734.43 707.731,-744.992 713.667,-736.217 706.899,-734.43"/>
</g>
<!-- 10 -->
<g id="node11" class="node"><title>10</title>
<polygon fill="none" stroke="black" points="1310,-0.5 1310,-159.5 1447,-159.5 1447,-0.5 1310,-0.5"/>
<text text-anchor="middle" x="1378.5" y="-144.3" font-family="Times,serif" font-size="14.00">Torrent</text>
<polyline fill="none" stroke="black" points="1310,-136.5 1447,-136.5 "/>
<text text-anchor="start" x="1318" y="-121.3" font-family="Times,serif" font-size="14.00">files : NoneType, list</text>
<text text-anchor="start" x="1318" y="-106.3" font-family="Times,serif" font-size="14.00">hash</text>
<text text-anchor="start" x="1318" y="-91.3" font-family="Times,serif" font-size="14.00">jids_lastseen : list</text>
<text text-anchor="start" x="1318" y="-76.3" font-family="Times,serif" font-size="14.00">names : list</text>
<text text-anchor="start" x="1318" y="-61.3" font-family="Times,serif" font-size="14.00">size</text>
<polyline fill="none" stroke="black" points="1310,-53.5 1447,-53.5 "/>
<text text-anchor="start" x="1318" y="-38.3" font-family="Times,serif" font-size="14.00">add_name()</text>
<text text-anchor="start" x="1318" y="-23.3" font-family="Times,serif" font-size="14.00">as_dict()</text>
<text text-anchor="start" x="1318" y="-8.3" font-family="Times,serif" font-size="14.00">set_files()</text>
</g>
<!-- 11 -->
<g id="node12" class="node"><title>11</title>
<polygon fill="none" stroke="black" points="364,-211.5 364,-625.5 545,-625.5 545,-211.5 364,-211.5"/>
<text text-anchor="middle" x="454.5" y="-610.3" font-family="Times,serif" font-size="14.00">TorrentClient</text>
<polyline fill="none" stroke="black" points="364,-602.5 545,-602.5 "/>
<text text-anchor="start" x="372" y="-587.3" font-family="Times,serif" font-size="14.00">end : bool</text>
<text text-anchor="start" x="372" y="-572.3" font-family="Times,serif" font-size="14.00">handles : list</text>
<text text-anchor="start" x="372" y="-557.3" font-family="Times,serif" font-size="14.00">name : str</text>
<text text-anchor="start" x="372" y="-542.3" font-family="Times,serif" font-size="14.00">session</text>
<text text-anchor="start" x="372" y="-527.3" font-family="Times,serif" font-size="14.00">settingname : str</text>
<text text-anchor="start" x="372" y="-512.3" font-family="Times,serif" font-size="14.00">statdb : str</text>
<text text-anchor="start" x="372" y="-497.3" font-family="Times,serif" font-size="14.00">state_str : list</text>
<text text-anchor="start" x="372" y="-482.3" font-family="Times,serif" font-size="14.00">status : str</text>
<polyline fill="none" stroke="black" points="364,-474.5 545,-474.5 "/>
<text text-anchor="start" x="372" y="-459.3" font-family="Times,serif" font-size="14.00">erase_all_torrents_from_db()</text>
<text text-anchor="start" x="372" y="-444.3" font-family="Times,serif" font-size="14.00">handle_queue()</text>
<text text-anchor="start" x="372" y="-429.3" font-family="Times,serif" font-size="14.00">on_add_magnetlink()</text>
<text text-anchor="start" x="372" y="-414.3" font-family="Times,serif" font-size="14.00">on_add_peer()</text>
<text text-anchor="start" x="372" y="-399.3" font-family="Times,serif" font-size="14.00">on_add_torrent()</text>
<text text-anchor="start" x="372" y="-384.3" font-family="Times,serif" font-size="14.00">on_add_torrent_by_info()</text>
<text text-anchor="start" x="372" y="-369.3" font-family="Times,serif" font-size="14.00">on_del_torrent()</text>
<text text-anchor="start" x="372" y="-354.3" font-family="Times,serif" font-size="14.00">on_exit()</text>
<text text-anchor="start" x="372" y="-339.3" font-family="Times,serif" font-size="14.00">on_generate_torrent()</text>
<text text-anchor="start" x="372" y="-324.3" font-family="Times,serif" font-size="14.00">pause()</text>
<text text-anchor="start" x="372" y="-309.3" font-family="Times,serif" font-size="14.00">resume()</text>
<text text-anchor="start" x="372" y="-294.3" font-family="Times,serif" font-size="14.00">run()</text>
<text text-anchor="start" x="372" y="-279.3" font-family="Times,serif" font-size="14.00">safe_shutdown()</text>
<text text-anchor="start" x="372" y="-264.3" font-family="Times,serif" font-size="14.00">save()</text>
<text text-anchor="start" x="372" y="-249.3" font-family="Times,serif" font-size="14.00">save_state()</text>
<text text-anchor="start" x="372" y="-234.3" font-family="Times,serif" font-size="14.00">setup_db()</text>
<text text-anchor="start" x="372" y="-219.3" font-family="Times,serif" font-size="14.00">setup_settings()</text>
</g>
<!-- 11&#45;&gt;6 -->
<g id="edge4" class="edge"><title>11&#45;&gt;6</title>
<path fill="none" stroke="black" d="M400.335,-625.602C385.236,-683.055 369.712,-742.126 357.754,-787.628"/>
<polygon fill="none" stroke="black" points="354.337,-786.857 355.181,-797.419 361.108,-788.637 354.337,-786.857"/>
</g>
<!-- 11&#45;&gt;9 -->
<g id="edge5" class="edge"><title>11&#45;&gt;9</title>
<path fill="none" stroke="black" d="M545.011,-612.531C552.566,-628.277 560.131,-643.923 567.5,-659 583.902,-692.558 602.144,-728.935 618.806,-761.812"/>
<polygon fill="none" stroke="black" points="615.815,-763.653 623.461,-770.988 622.058,-760.486 615.815,-763.653"/>
</g>
<!-- 12 -->
<g id="node13" class="node"><title>12</title>
<polygon fill="none" stroke="black" points="954,-30.5 954,-129.5 1035,-129.5 1035,-30.5 954,-30.5"/>
<text text-anchor="middle" x="994.5" y="-114.3" font-family="Times,serif" font-size="14.00">TorrentList</text>
<polyline fill="none" stroke="black" points="954,-106.5 1035,-106.5 "/>
<text text-anchor="start" x="962" y="-91.3" font-family="Times,serif" font-size="14.00">list : list</text>
<text text-anchor="start" x="962" y="-76.3" font-family="Times,serif" font-size="14.00">lock</text>
<polyline fill="none" stroke="black" points="954,-68.5 1035,-68.5 "/>
<text text-anchor="start" x="962" y="-53.3" font-family="Times,serif" font-size="14.00">add()</text>
<text text-anchor="start" x="962" y="-38.3" font-family="Times,serif" font-size="14.00">as_dict()</text>
</g>
<!-- 12&#45;&gt;1 -->
<g id="edge11" class="edge"><title>12&#45;&gt;1</title>
<path fill="none" stroke="black" d="M968.871,-129.564C962.175,-144.664 955.888,-161.648 952.5,-178 942.979,-223.951 945.871,-275.735 952.11,-319.366"/>
<polygon fill="black" stroke="black" points="952.142,-319.581 957.001,-324.91 953.951,-331.444 949.092,-326.115 952.142,-319.581"/>
<text text-anchor="middle" x="974" y="-181.8" font-family="Times,serif" font-size="14.00" fill="green">torrents</text>
</g>
<!-- 12&#45;&gt;1 -->
<g id="edge12" class="edge"><title>12&#45;&gt;1</title>
<path fill="none" stroke="black" d="M995.102,-129.848C995.265,-145.254 995.419,-162.338 995.5,-178 995.534,-184.667 995.825,-186.341 995.5,-193 993.473,-234.475 989.351,-280.106 985.217,-319.335"/>
<polygon fill="black" stroke="black" points="985.214,-319.361 988.552,-325.753 983.936,-331.293 980.598,-324.901 985.214,-319.361"/>
<text text-anchor="middle" x="1017" y="-181.8" font-family="Times,serif" font-size="14.00" fill="green">torrents</text>
</g>
<!-- 13 -->
<g id="node14" class="node"><title>13</title>
<polygon fill="none" stroke="black" points="18,-339 18,-498 191,-498 191,-339 18,-339"/>
<text text-anchor="middle" x="104.5" y="-482.8" font-family="Times,serif" font-size="14.00">XmppClient</text>
<polyline fill="none" stroke="black" points="18,-475 191,-475 "/>
<text text-anchor="start" x="26" y="-459.8" font-family="Times,serif" font-size="14.00">name</text>
<text text-anchor="start" x="26" y="-444.8" font-family="Times,serif" font-size="14.00">settings : dict</text>
<polyline fill="none" stroke="black" points="18,-437 191,-437 "/>
<text text-anchor="start" x="26" y="-421.8" font-family="Times,serif" font-size="14.00">create_magnetlink_stanza()</text>
<text text-anchor="start" x="26" y="-406.8" font-family="Times,serif" font-size="14.00">on_exit()</text>
<text text-anchor="start" x="26" y="-391.8" font-family="Times,serif" font-size="14.00">on_magnet_links_publish()</text>
<text text-anchor="start" x="26" y="-376.8" font-family="Times,serif" font-size="14.00">on_update_magnetlinks()</text>
<text text-anchor="start" x="26" y="-361.8" font-family="Times,serif" font-size="14.00">process_queue()</text>
<text text-anchor="start" x="26" y="-346.8" font-family="Times,serif" font-size="14.00">start()</text>
</g>
<!-- 13&#45;&gt;0 -->
<g id="edge6" class="edge"><title>13&#45;&gt;0</title>
<path fill="none" stroke="black" d="M104.5,-498.224C104.5,-545.18 104.5,-607.126 104.5,-666.886"/>
<polygon fill="none" stroke="black" points="101,-667.232 104.5,-677.232 108,-667.232 101,-667.232"/>
</g>
<!-- 13&#45;&gt;6 -->
<g id="edge7" class="edge"><title>13&#45;&gt;6</title>
<path fill="none" stroke="black" d="M139.358,-498.132C156.997,-536.956 179.151,-584.297 200.5,-626 228.655,-680.998 262.655,-741.623 289.616,-788.499"/>
<polygon fill="none" stroke="black" points="286.712,-790.469 294.738,-797.385 292.777,-786.974 286.712,-790.469"/>
</g>
<!-- 14 -->
<g id="node15" class="node"><title>14</title>
<polygon fill="none" stroke="black" points="428.5,-15.5 428.5,-144.5 508.5,-144.5 508.5,-15.5 428.5,-15.5"/>
<text text-anchor="middle" x="468.5" y="-129.3" font-family="Times,serif" font-size="14.00">_Condition</text>
<polyline fill="none" stroke="black" points="428.5,-121.5 508.5,-121.5 "/>
<text text-anchor="start" x="436.5" y="-106.3" font-family="Times,serif" font-size="14.00">acquire</text>
<text text-anchor="start" x="436.5" y="-91.3" font-family="Times,serif" font-size="14.00">notify_all</text>
<text text-anchor="start" x="436.5" y="-76.3" font-family="Times,serif" font-size="14.00">release</text>
<polyline fill="none" stroke="black" points="428.5,-68.5 508.5,-68.5 "/>
<text text-anchor="start" x="436.5" y="-53.3" font-family="Times,serif" font-size="14.00">notify()</text>
<text text-anchor="start" x="436.5" y="-38.3" font-family="Times,serif" font-size="14.00">notifyAll()</text>
<text text-anchor="start" x="436.5" y="-23.3" font-family="Times,serif" font-size="14.00">wait()</text>
</g>
<!-- 14&#45;&gt;7 -->
<g id="edge13" class="edge"><title>14&#45;&gt;7</title>
<path fill="none" stroke="black" d="M428.472,-109.746C406.435,-127.326 380.073,-151.49 362.5,-178 344.534,-205.103 329.868,-236.45 318.09,-267.352"/>
<polygon fill="black" stroke="black" points="318.052,-267.456 319.717,-274.472 313.881,-278.708 312.216,-271.692 318.052,-267.456"/>
<text text-anchor="middle" x="404.5" y="-181.8" font-family="Times,serif" font-size="14.00" fill="green">all_tasks_done</text>
</g>
<!-- 14&#45;&gt;7 -->
<g id="edge14" class="edge"><title>14&#45;&gt;7</title>
<path fill="none" stroke="black" d="M468.76,-144.72C465.723,-162.417 459.256,-180.254 446.5,-193 417.028,-222.45 386.271,-184.046 354.5,-211 336.404,-226.352 322.557,-246.386 311.962,-267.932"/>
<polygon fill="black" stroke="black" points="311.897,-268.073 313.013,-275.197 306.866,-278.967 305.75,-271.843 311.897,-268.073"/>
<text text-anchor="middle" x="479.5" y="-181.8" font-family="Times,serif" font-size="14.00" fill="green">not_full</text>
</g>
<!-- 14&#45;&gt;7 -->
<g id="edge15" class="edge"><title>14&#45;&gt;7</title>
<path fill="none" stroke="black" d="M428.379,-90.5544C386.087,-102.952 321.401,-129.043 290.5,-178 273.969,-204.191 265.946,-235.379 262.883,-266.45"/>
<polygon fill="black" stroke="black" points="262.853,-266.842 266.373,-273.136 261.917,-278.806 258.397,-272.512 262.853,-266.842"/>
<text text-anchor="middle" x="321" y="-181.8" font-family="Times,serif" font-size="14.00" fill="green">not_empty</text>
</g>
<!-- 14&#45;&gt;9 -->
<g id="edge16" class="edge"><title>14&#45;&gt;9</title>
<path fill="none" stroke="black" d="M508.643,-129.815C525.464,-153.002 543.422,-181.958 553.5,-211 614.205,-385.943 552.017,-444.867 590.5,-626 598.019,-661.391 609.135,-698.764 620.804,-733.289"/>
<polygon fill="black" stroke="black" points="620.886,-733.53 626.616,-737.908 624.778,-744.881 619.048,-740.503 620.886,-733.53"/>
<text text-anchor="middle" x="613.5" y="-414.8" font-family="Times,serif" font-size="14.00" fill="green">__block</text>
</g>
<!-- 15 -->
<g id="node16" class="node"><title>15</title>
<polygon fill="none" stroke="black" points="645.5,-361.5 645.5,-475.5 701.5,-475.5 701.5,-361.5 645.5,-361.5"/>
<text text-anchor="middle" x="673.5" y="-460.3" font-family="Times,serif" font-size="14.00">_Event</text>
<polyline fill="none" stroke="black" points="645.5,-452.5 701.5,-452.5 "/>
<text text-anchor="start" x="653.5" y="-437.3" font-family="Times,serif" font-size="14.00">is_set</text>
<polyline fill="none" stroke="black" points="645.5,-429.5 701.5,-429.5 "/>
<text text-anchor="start" x="653.5" y="-414.3" font-family="Times,serif" font-size="14.00">clear()</text>
<text text-anchor="start" x="653.5" y="-399.3" font-family="Times,serif" font-size="14.00">isSet()</text>
<text text-anchor="start" x="653.5" y="-384.3" font-family="Times,serif" font-size="14.00">set()</text>
<text text-anchor="start" x="653.5" y="-369.3" font-family="Times,serif" font-size="14.00">wait()</text>
</g>
<!-- 14&#45;&gt;15 -->
<g id="edge17" class="edge"><title>14&#45;&gt;15</title>
<path fill="none" stroke="black" d="M508.768,-101.272C547.15,-122.889 603.166,-160.905 631.5,-211 655.352,-253.17 665.766,-306.97 670.262,-349.083"/>
<polygon fill="black" stroke="black" points="670.278,-349.245 674.834,-354.834 671.428,-361.19 666.871,-355.601 670.278,-349.245"/>
<text text-anchor="middle" x="641" y="-181.8" font-family="Times,serif" font-size="14.00" fill="green">__cond</text>
</g>
<!-- 15&#45;&gt;9 -->
<g id="edge18" class="edge"><title>15&#45;&gt;9</title>
<path fill="none" stroke="black" d="M673.5,-475.912C673.5,-539.845 673.5,-646.333 673.5,-732.285"/>
<polygon fill="black" stroke="black" points="673.5,-732.539 677.5,-738.539 673.5,-744.539 669.5,-738.539 673.5,-732.539"/>
<text text-anchor="middle" x="699.5" y="-647.8" font-family="Times,serif" font-size="14.00" fill="green">__started</text>
</g>
</g>
</svg>
