<?xml version="1.0" encoding="UTF-8" standalone="no"?>
<!DOCTYPE svg PUBLIC "-//W3C//DTD SVG 1.1//EN"
 "http://www.w3.org/Graphics/SVG/1.1/DTD/svg11.dtd">
<!-- Generated by graphviz version 2.38.0 (20140413.2041)
 -->
<!-- Title: classes_bitween_small Pages: 1 -->
<svg width="618pt" height="207pt"
 viewBox="0.00 0.00 618.00 207.00" xmlns="http://www.w3.org/2000/svg" xmlns:xlink="http://www.w3.org/1999/xlink">
<g id="graph0" class="graph" transform="scale(1 1) rotate(0) translate(4 203)">
<title>classes_bitween_small</title>
<polygon fill="white" stroke="none" points="-4,4 -4,-203 614,-203 614,4 -4,4"/>
<!-- 0 -->
<g id="node1" class="node"><title>0</title>
<polygon fill="none" stroke="black" points="10,-88.5 10,-124.5 71,-124.5 71,-88.5 10,-88.5"/>
<text text-anchor="middle" x="40.5" y="-102.8" font-family="Times,serif" font-size="14.00">Contact</text>
</g>
<!-- 1 -->
<g id="node2" class="node"><title>1</title>
<polygon fill="none" stroke="black" points="99,-0.5 99,-36.5 182,-36.5 182,-0.5 99,-0.5"/>
<text text-anchor="middle" x="140.5" y="-14.8" font-family="Times,serif" font-size="14.00">ContactList</text>
</g>
<!-- 2 -->
<g id="node3" class="node"><title>2</title>
<polygon fill="none" stroke="black" points="200.5,-0.5 200.5,-36.5 280.5,-36.5 280.5,-0.5 200.5,-0.5"/>
<text text-anchor="middle" x="240.5" y="-14.8" font-family="Times,serif" font-size="14.00">HandleList</text>
</g>
<!-- 6 -->
<g id="node7" class="node"><title>6</title>
<polygon fill="none" stroke="black" points="260.5,-88.5 260.5,-124.5 322.5,-124.5 322.5,-88.5 260.5,-88.5"/>
<text text-anchor="middle" x="291.5" y="-102.8" font-family="Times,serif" font-size="14.00">Sentinel</text>
</g>
<!-- 2&#45;&gt;6 -->
<g id="edge4" class="edge"><title>2&#45;&gt;6</title>
<path fill="none" stroke="black" d="M250.821,-36.9034C257.779,-48.6368 267.108,-64.3681 275.077,-77.8058"/>
<polygon fill="black" stroke="black" points="275.248,-78.0944 281.749,-81.2149 281.369,-88.416 274.868,-85.2955 275.248,-78.0944"/>
<text text-anchor="middle" x="282" y="-58.8" font-family="Times,serif" font-size="14.00" fill="green">files</text>
</g>
<!-- 3 -->
<g id="node4" class="node"><title>3</title>
<polygon fill="none" stroke="black" points="298.5,-0.5 298.5,-36.5 386.5,-36.5 386.5,-0.5 298.5,-0.5"/>
<text text-anchor="middle" x="342.5" y="-14.8" font-family="Times,serif" font-size="14.00">JsonRpcAPI</text>
</g>
<!-- 3&#45;&gt;6 -->
<g id="edge5" class="edge"><title>3&#45;&gt;6</title>
<path fill="none" stroke="black" d="M332.179,-36.9034C325.221,-48.6368 315.892,-64.3681 307.923,-77.8058"/>
<polygon fill="black" stroke="black" points="307.752,-78.0944 308.132,-85.2955 301.631,-88.416 301.251,-81.2149 307.752,-78.0944"/>
<text text-anchor="middle" x="329" y="-58.8" font-family="Times,serif" font-size="14.00" fill="green">api</text>
</g>
<!-- 4 -->
<g id="node5" class="node"><title>4</title>
<polygon fill="none" stroke="black" points="404.5,-0.5 404.5,-36.5 532.5,-36.5 532.5,-0.5 404.5,-0.5"/>
<text text-anchor="middle" x="468.5" y="-14.8" font-family="Times,serif" font-size="14.00">MagnetLinksStanza</text>
</g>
<!-- 5 -->
<g id="node6" class="node"><title>5</title>
<polygon fill="none" stroke="black" points="338.5,-162.5 338.5,-198.5 436.5,-198.5 436.5,-162.5 338.5,-162.5"/>
<text text-anchor="middle" x="387.5" y="-176.8" font-family="Times,serif" font-size="14.00">PubSubscriber</text>
</g>
<!-- 6&#45;&gt;5 -->
<g id="edge1" class="edge"><title>6&#45;&gt;5</title>
<path fill="none" stroke="black" d="M314.251,-124.563C326.832,-133.999 342.648,-145.861 356.361,-156.146"/>
<polygon fill="none" stroke="black" points="354.48,-159.11 364.58,-162.31 358.68,-153.51 354.48,-159.11"/>
</g>
<!-- 7 -->
<g id="node8" class="node"><title>7</title>
<polygon fill="none" stroke="black" points="551,-0.5 551,-36.5 610,-36.5 610,-0.5 551,-0.5"/>
<text text-anchor="middle" x="580.5" y="-14.8" font-family="Times,serif" font-size="14.00">Torrent</text>
</g>
<!-- 8 -->
<g id="node9" class="node"><title>8</title>
<polygon fill="none" stroke="black" points="340.5,-88.5 340.5,-124.5 434.5,-124.5 434.5,-88.5 340.5,-88.5"/>
<text text-anchor="middle" x="387.5" y="-102.8" font-family="Times,serif" font-size="14.00">TorrentClient</text>
</g>
<!-- 8&#45;&gt;5 -->
<g id="edge2" class="edge"><title>8&#45;&gt;5</title>
<path fill="none" stroke="black" d="M387.5,-124.563C387.5,-132.693 387.5,-142.624 387.5,-151.795"/>
<polygon fill="none" stroke="black" points="384,-152.059 387.5,-162.059 391,-152.059 384,-152.059"/>
</g>
<!-- 9 -->
<g id="node10" class="node"><title>9</title>
<polygon fill="none" stroke="black" points="0,-0.5 0,-36.5 81,-36.5 81,-0.5 0,-0.5"/>
<text text-anchor="middle" x="40.5" y="-14.8" font-family="Times,serif" font-size="14.00">TorrentList</text>
</g>
<!-- 9&#45;&gt;0 -->
<g id="edge6" class="edge"><title>9&#45;&gt;0</title>
<path fill="none" stroke="black" d="M19.6431,-36.8081C11.0135,-46.1563 3.95878,-58.1795 8.5,-70 9.61961,-72.9143 11.1014,-75.7388 12.8146,-78.4369"/>
<polygon fill="black" stroke="black" points="12.9674,-78.6352 19.7984,-80.9454 20.2932,-88.1396 13.4621,-85.8293 12.9674,-78.6352"/>
<text text-anchor="middle" x="30" y="-58.8" font-family="Times,serif" font-size="14.00" fill="green">torrents</text>
</g>
<!-- 9&#45;&gt;0 -->
<g id="edge7" class="edge"><title>9&#45;&gt;0</title>
<path fill="none" stroke="black" d="M46.9331,-36.5905C48.7942,-42.3523 50.5729,-48.8756 51.5,-55 52.5576,-61.9866 51.9237,-69.4535 50.5387,-76.4441"/>
<polygon fill="black" stroke="black" points="50.4729,-76.6963 52.8254,-83.5129 47.438,-88.3062 45.0855,-81.4896 50.4729,-76.6963"/>
<text text-anchor="middle" x="74" y="-58.8" font-family="Times,serif" font-size="14.00" fill="green">torrents</text>
</g>
<!-- 10 -->
<g id="node11" class="node"><title>10</title>
<polygon fill="none" stroke="black" points="452.5,-88.5 452.5,-124.5 538.5,-124.5 538.5,-88.5 452.5,-88.5"/>
<text text-anchor="middle" x="495.5" y="-102.8" font-family="Times,serif" font-size="14.00">XmppClient</text>
</g>
<!-- 10&#45;&gt;5 -->
<g id="edge3" class="edge"><title>10&#45;&gt;5</title>
<path fill="none" stroke="black" d="M469.906,-124.563C455.485,-134.177 437.286,-146.31 421.661,-156.726"/>
<polygon fill="none" stroke="black" points="419.664,-153.851 413.285,-162.31 423.547,-159.675 419.664,-153.851"/>
</g>
</g>
</svg>
